<?xml version="1.0" encoding="utf-8"?>
<!-- Generator: Adobe Illustrator 17.1.0, SVG Export Plug-In . SVG Version: 6.00 Build 0)  -->
<!DOCTYPE svg PUBLIC "-//W3C//DTD SVG 1.1//EN" "http://www.w3.org/Graphics/SVG/1.1/DTD/svg11.dtd">
<svg version="1.1" id="Capa_1" xmlns="http://www.w3.org/2000/svg" xmlns:xlink="http://www.w3.org/1999/xlink" x="0px" y="0px"
	 viewBox="0 0 595.3 841.9" enable-background="new 0 0 595.3 841.9" xml:space="preserve">
<g>
	<path d="M196.2,159.7h153.8l25.4,32.1c1.1,1.3,2.6,2,4.2,2c1.2,0,2.3-0.4,3.3-1.2c2.3-1.8,2.7-5.2,0.9-7.5L355.2,149h-159
		c-3,0-5.3,2.4-5.3,5.3S193.3,159.7,196.2,159.7z"/>
	<path d="M499.4,412.8c-0.2-0.5-0.5-1-0.9-1.4L346.6,259.6l-3.4,6.3c-7.4,13.8-21.3,32.6-28.5,32.6h-0.2c-6-0.5-41.4-9.1-53.4-14.6
		c35.4-25.7,66.7-65.1,74.1-74.8h115.2l38.5,36.2c2.1,2,5.5,1.9,7.5-0.2c2-2.2,1.9-5.5-0.2-7.6l-41.5-39.1H330l-1.6,2.1
		c-0.4,0.5-37.5,50.1-77.5,77.6c-2.6,1.8-3.8,4.7-3,7.6c3.5,12.3,65.5,23.4,66.1,23.4c0.2,0,0.5,0,0.7,0c13.4,0,27.6-20.7,34.4-32
		L491,419c0.1,0.1,0.2,0.1,0.3,0.2c3.5,4.1,5.6,9.2,5.7,14.5c0.1,5.9-2,11.4-6,15.4c-4,4-9.6,6.1-15.4,6c-5-0.1-9.7-1.9-13.7-5
		c-1-1.5-2.1-2.9-3.4-4.2L374,361.6l-7.6,7.5l76.1,76.1l-0.4,0.4l9.9,9.9c0.4,0.4,0.9,0.7,1.4,1.1c2.7,3.8,4.1,8.3,4.1,13.1
		c0,6.1-2.4,11.9-6.7,16.2c-8.9,8.9-23.2,8.9-32.1,0.2c-0.1-0.1-0.1-0.1-0.2-0.2l-84.4-84.4l-7.5,7.5l59.8,59.8l0,0l24.6,24.6
		c0.1,0.1,0.1,0.1,0.2,0.2c4.2,4.3,6.5,10,6.5,16c0,6.1-2.4,11.9-6.7,16.2c-8.9,8.9-23.4,8.9-32.4,0l-24.4-24.4
		c-1.2-1.9-2.7-3.7-4.4-5.4l-40.2-40.2l-7.5,7.6l40.2,40.2c4.3,4.3,6.7,10.1,6.7,16.2c0,6.1-2.4,11.9-6.7,16.2
		c-8.9,8.9-23.4,8.9-32.4,0l-32.2-32.2l5.5-5.5c5-5,7.7-11.6,7.7-18.6s-2.7-13.7-7.7-18.7c-4.7-4.7-11-7.1-17.5-7.4l11.6-11.6
		c6.4-6.4,10.1-14.8,10.4-23.5c0.3-8.9-2.9-17.2-9.1-23.4c-6.8-6.8-16.6-9.4-26.3-8.3c1-3.1,1.7-6.4,1.7-9.8
		c0-8.6-3.4-16.7-9.4-22.8c-9.7-9.7-25-11.5-37-5.8c-0.2-8.4-3.4-16.2-9.4-22.2c-12.2-12.2-33.4-12.2-45.6,0l-26.3,26.3l-37-37
		c-2.1-2.1-5.5-2.1-7.5,0c-2.1,2.1-2.1,5.5,0,7.5l37,37l-9.6,9.6c-6.1,6.1-9.4,14.2-9.4,22.8c0,8.6,3.4,16.7,9.4,22.8
		c6.1,6.1,14.2,9.4,22.8,9.4c1.9,0,3.7-0.2,5.5-0.5c-0.3,1.8-0.5,3.6-0.5,5.5c0,8.6,3.4,16.7,9.5,22.8c6.1,6.1,14.2,9.5,22.8,9.5
		c2.2,0,4.4-0.2,6.5-0.7c-1.9,10.2,0.8,20.9,8.4,28.5c5.9,5.9,13.8,9.1,22.3,9.1c4.6,0,9.2-1,13.5-2.9c-0.7,7.5,1.8,15.2,7.5,21
		c5,5,11.6,7.7,18.7,7.7c7,0,13.7-2.8,18.7-7.7l5.6-5.6l32.2,32.2c6.3,6.3,14.8,9.8,23.7,9.8c9,0,17.4-3.5,23.7-9.8
		c6-6,9.1-13.8,9.6-21.7l11.6,11.6c6.3,6.3,14.8,9.8,23.7,9.8c9,0,17.4-3.5,23.7-9.8c8.4-8.4,11.3-20.1,9-30.9
		c2.3,0.5,4.7,0.8,7.1,0.8c9,0,17.4-3.5,23.7-9.8c7.9-7.9,11-18.8,9.3-29.1c2.8,0.7,5.6,1.2,8.4,1.2c8.1,0,16.2-3,22.2-9.1
		C510,444.8,510.2,425.9,499.4,412.8z M116.6,407.6c-4.1-4.1-6.3-9.5-6.3-15.3c0-5.8,2.2-11.2,6.3-15.2l43.5-43.5
		c4.1-4.1,9.5-6.3,15.3-6.3c5.8,0,11.2,2.3,15.2,6.3c4.1,4.1,6.3,9.5,6.3,15.3c0,3.4-0.9,6.7-2.4,9.6l-48.3,48.3
		c-1.2,1.2-2.2,2.5-3.2,3.9C134.8,415.5,123.5,414.5,116.6,407.6z M153.8,444.8c-4.1-4.1-6.3-9.5-6.3-15.2c0-4,1.1-7.8,3.2-11.1
		c1.4-1,2.8-2,4-3.3l43.5-43.5c2-2,3.6-4.3,5-6.6l3.4-3.4c4.1-4.1,9.5-6.3,15.3-6.3c5.8,0,11.2,2.2,15.2,6.3
		c4.1,4.1,6.3,9.5,6.3,15.2c0,5.7-2.2,11-6.2,15.1c-1.9,1.3-3.8,2.7-5.4,4.3l-46.4,46.4c-1.2,1.2-2.2,2.6-3.2,3.9
		C173.8,452.8,161.3,452.3,153.8,444.8z M191.6,482c-7.3-7.3-7.8-19-1.9-27.9c0.7-0.6,1.5-1.1,2.2-1.8l52.1-52.1
		c3.8-2.3,8-3.6,12.4-3.6c5.6,0,10.9,2.1,14.7,6c4,4,6.1,9.5,5.9,15.4c-0.2,6.1-2.8,11.9-7.2,16.3l-46.4,46.4
		C214.6,489.5,199.6,490.1,191.6,482z M257,509.2c-5.9,5.9-16.3,5.9-22.2,0c-6.1-6.1-6.1-16.1,0-22.2l18.6-18.6
		c3-3,6.9-4.6,11.1-4.6c4.2,0,8.1,1.6,11.1,4.6c6.1,6.1,6.1,16.1,0,22.2L257,509.2z"/>
</g>
</svg>
