<?xml version="1.0" encoding="utf-8"?>
<!-- Generator: Adobe Illustrator 17.1.0, SVG Export Plug-In . SVG Version: 6.00 Build 0)  -->
<!DOCTYPE svg PUBLIC "-//W3C//DTD SVG 1.1//EN" "http://www.w3.org/Graphics/SVG/1.1/DTD/svg11.dtd">
<svg version="1.1" id="Capa_1" xmlns="http://www.w3.org/2000/svg" xmlns:xlink="http://www.w3.org/1999/xlink" x="0px" y="0px"
	 viewBox="0 0 595.3 841.9" enable-background="new 0 0 595.3 841.9" xml:space="preserve">
<g>
	<path d="M519,374.5c-23.2-6.3-42.8-21.6-54.8-42.4c9.4-13.2,14.5-29,14.5-45.4c0-6.6-5.3-11.9-11.9-11.9H375
		c0.2-1.7,0.3-3.5,0.3-5.2c0-31.9-25.9-57.8-57.8-57.8s-57.8,25.9-57.8,57.8c0,1.8,0.1,3.6,0.3,5.4c-63.9,1.6-118.4,41.7-141.3,97.9
		c-0.1,0.1-0.3,0.2-0.5,0.4c-1,1-2.3,1.2-2.9,1.2c-0.6,0-1.9-0.2-2.9-1.2c-1-1-1.2-2.3-1.2-2.9c0-0.6,0.2-1.9,1.2-2.9l8.8-8.8
		c5.3-5.3,8.2-12.3,8.2-19.7c0-7.5-2.9-14.5-8.2-19.7c-10.9-10.9-28.6-10.9-39.5,0L71,330c-4.6,4.6-4.6,12.2,0,16.8
		c4.6,4.6,12.2,4.6,16.8,0l10.7-10.7c1.6-1.6,4.2-1.6,5.8,0c1,1,1.2,2.3,1.2,2.9c0,0.6-0.2,1.9-1.2,2.9l-8.8,8.8
		c-5.3,5.3-8.2,12.3-8.2,19.7c0,7.5,2.9,14.5,8.2,19.7c4.2,4.2,9.6,6.8,15.3,7.8c-2.4,10.9-3.7,22.3-3.7,33.9
		c0,18,3.2,35.8,9.4,53.1c0.1,1,0.4,2,0.8,3l46.8,114.4c1.8,4.5,6.2,7.4,11,7.4h60.2c6.6,0,11.9-5.3,11.9-11.9V578h111l10.8,24.5
		c1.9,4.3,6.2,7.1,10.9,7.1h60.2c6.6,0,11.9-5.3,11.9-11.9v-55.5c0-40.9,27.6-77,67-87.8c5.2-1.4,8.8-6.1,8.8-11.5v-57
		C527.8,380.6,524.2,375.9,519,374.5z M317.5,235.6c18.7,0,34,15.3,34,34c0,18.7-15.3,34-34,34c-18.7,0-34-15.3-34-34
		S298.7,235.6,317.5,235.6z M504,434.3c-45.1,16.3-75.8,59.5-75.8,107.9v43.6h-40.5l-10.8-24.5c-1.9-4.3-6.2-7.1-10.9-7.1H235.4
		c-6.6,0-11.9,5.3-11.9,11.9v19.7h-40.3l-42.8-104.5c-0.1-0.8-0.3-1.5-0.6-2.3c-5.9-15.4-8.8-31.3-8.8-47.3
		c0-73.4,59.7-133.1,133.1-133.1c0.3,0,0.7,0,1,0h2.5c2.9,4.9,6.4,9.3,10.5,13.2h-11.7c-6.6,0-11.9,5.3-11.9,11.9
		c0,6.6,5.3,11.9,11.9,11.9h102.1c6.6,0,11.9-5.3,11.9-11.9c0-6.6-5.3-11.9-11.9-11.9h-11.7c4.1-3.8,7.7-8.3,10.5-13.2h86.2
		c-2,8.9-6.3,17.2-12.4,24.2c-3.2,3.6-3.9,8.7-1.9,13c13.1,27.5,36.4,48.6,64.7,58.8L504,434.3L504,434.3z"/>
	<circle cx="415" cy="380" r="14.1"/>
	<path d="M317.5,199.1c31.9,0,57.8-25.9,57.8-57.8c0-31.9-25.9-57.8-57.8-57.8s-57.8,25.9-57.8,57.8
		C259.7,173.1,285.6,199.1,317.5,199.1z M317.5,107.3c18.7,0,34,15.3,34,34c0,18.7-15.3,34-34,34c-18.7,0-34-15.2-34-34
		C283.5,122.5,298.7,107.3,317.5,107.3z"/>
</g>
</svg>
