<?xml version="1.0" encoding="utf-8"?>
<!-- Generator: Adobe Illustrator 17.1.0, SVG Export Plug-In . SVG Version: 6.00 Build 0)  -->
<!DOCTYPE svg PUBLIC "-//W3C//DTD SVG 1.1//EN" "http://www.w3.org/Graphics/SVG/1.1/DTD/svg11.dtd">
<svg version="1.1" id="Capa_1" xmlns="http://www.w3.org/2000/svg" xmlns:xlink="http://www.w3.org/1999/xlink" x="0px" y="0px"
	 viewBox="0 0 595.3 841.9" enable-background="new 0 0 595.3 841.9" xml:space="preserve">
<g>
	<g>
		<path d="M184.7,462.4C124.2,462.4,75,413.2,75,352.7C75,292.2,124.2,243,184.7,243s109.7,49.2,109.7,109.7
			C294.4,413.2,245.2,462.4,184.7,462.4z M184.7,258.4c-52,0-94.2,42.3-94.2,94.2c0,52,42.3,94.2,94.2,94.2s94.2-42.3,94.2-94.2
			C278.9,300.7,236.7,258.4,184.7,258.4z"/>
	</g>
	<g>
		<path d="M236,361.5h-42.4v42.4h-17.7v-42.4h-42.4v-17.7h42.4v-42.4h17.7v42.4H236V361.5z"/>
	</g>
	<path d="M512.9,370.5L472,329.3c-3.1-3.1-7.2-4.8-11.6-4.9c0,0,0,0-0.1,0c-4.4,0-8.5,1.7-11.6,4.8c-0.5,0.5-1.2,0.5-1.7,0l-3.3-3.3
		c-0.3-0.3-0.4-0.6-0.3-0.9c0-0.2,0.1-0.6,0.4-0.8c6.4-6.4,6.5-16.8,0.1-23.3L426.1,283c-7.2-7.2-18.1-8.4-26.7-3
		c-7,4.5-13.4,9.6-19.1,15.2c-5.6,5.6-10.8,12-15.3,19c-5.5,8.5-4.4,19.5,2.8,26.7l17.8,17.9c3.1,3.1,7.2,4.8,11.6,4.9
		c0,0,0,0,0.1,0c4.4,0,8.5-1.7,11.6-4.8c0.3-0.3,0.6-0.3,0.8-0.3c0.1-0.2,0.6,0.1,0.9,0.4l3.3,3.3c0.3,0.3,0.3,0.6,0.3,0.8
		c0,0.2-0.1,0.6-0.4,0.8c-6.4,6.3-6.4,16.6-0.3,23l-237.2,218c-8.2,7.2-13.1,17.7-13.5,28.6c-0.3,11,3.9,21.7,11.7,29.4
		c7.5,7.5,17.7,11.7,28.2,11.7c0.4,0,0.8,0,1.2,0c11-0.3,21.4-5.3,28.5-13.4l218.4-237.9c6,4.2,13.1,7,20.5,8
		c9.1,1.2,39.1,7.2,43.4,32.7c1.3,7.9,8.2,13.9,16.4,14.1c0.1,0,0.2,0,0.3,0c8,0,15-5.9,16.2-13.9
		C550.8,445.4,550.3,408.1,512.9,370.5z M221.2,651.1c-4.5,5.1-10.8,8.1-17.7,8.3c-6.9,0.2-13.3-2.3-18.2-7.2
		c-4.9-4.9-7.4-11.3-7.2-18.2c0.2-6.9,3.2-13.1,8.4-17.8l237.8-218.5l15.3,15.4L221.2,651.1z M532.7,462c-0.1,0.6-0.5,1-1.5,1
		c-0.4,0-1.2-0.7-1.3-1.4c-4-23.8-25.6-41.2-56.4-45.3c-6.9-0.9-13.4-4.1-18.2-8.9l-30.7-30.9c-0.3-0.3-0.4-0.6-0.3-0.9
		c0-0.2,0.1-0.6,0.4-0.8c3.1-3.1,4.8-7.2,4.9-11.6c0-4.4-1.7-8.5-4.8-11.7l-3.3-3.3c-3.1-3.1-7.2-4.8-11.6-4.9c0,0,0,0-0.1,0
		c-4.4,0-8.5,1.7-11.6,4.8c-0.3,0.3-0.6,0.3-0.8,0.3c-0.4-0.1-0.6-0.1-0.9-0.4l-17.8-17.9c-2-2.1-2.4-5.2-0.8-7.6
		c3.9-6.1,8.4-11.6,13.2-16.4c4.8-4.8,10.4-9.2,16.5-13.1c2.4-1.6,5.6-1.2,7.6,0.9l17.8,17.9c0.5,0.5,0.5,1.2,0,1.7
		c-6.4,6.4-6.5,16.8-0.1,23.3l3.3,3.3c6.4,6.4,16.8,6.5,23.3,0.1c0.5-0.5,1.2-0.5,1.7,0l40.9,41.1C534.7,414,535.3,445.9,532.7,462z
		"/>
</g>
</svg>
