<?xml version="1.0" encoding="utf-8"?>
<!-- Generator: Adobe Illustrator 17.1.0, SVG Export Plug-In . SVG Version: 6.00 Build 0)  -->
<!DOCTYPE svg PUBLIC "-//W3C//DTD SVG 1.1//EN" "http://www.w3.org/Graphics/SVG/1.1/DTD/svg11.dtd">
<svg version="1.1" id="Capa_1" xmlns="http://www.w3.org/2000/svg" xmlns:xlink="http://www.w3.org/1999/xlink" x="0px" y="0px"
	 viewBox="0 0 595.3 841.9" enable-background="new 0 0 595.3 841.9" xml:space="preserve">
<g>
	<g>
		<path d="M447.7,640.3H147.6c-31.9,0-56.9-25-56.9-56.9V109.7c0-31.9,25-56.9,56.9-56.9h300.1c31.9,0,56.9,25,56.9,56.9v473.7
			C504.6,615.3,479.6,640.3,447.7,640.3z M147.6,69.8c-22.7,0-39.9,17.1-39.9,39.9v473.7c0,22.7,17.1,39.9,39.9,39.9h300.1
			c22.7,0,39.9-17.1,39.9-39.9V109.7c0-22.7-17.1-39.9-39.9-39.9H147.6z"/>
	</g>
	<g>
		<path d="M453.7,305.4H151.5V121h302.2V305.4z M168.5,288.4h268.2V138H168.5V288.4z"/>
	</g>
	<g>
		<g>
			<g>
				<rect x="161.2" y="354.2" width="59.5" height="17"/>
			</g>
			<g>
				<rect x="267.9" y="354.2" width="59.5" height="17"/>
			</g>
			<g>
				<rect x="374.5" y="354.2" width="59.5" height="17"/>
			</g>
		</g>
		<g>
			<g>
				<rect x="161.2" y="421.1" width="59.5" height="17"/>
			</g>
			<g>
				<rect x="267.9" y="421.1" width="59.5" height="17"/>
			</g>
			<g>
				<rect x="374.5" y="421.1" width="59.5" height="17"/>
			</g>
		</g>
		<g>
			<g>
				<rect x="161.2" y="488.1" width="59.5" height="17"/>
			</g>
			<g>
				<rect x="267.9" y="488.1" width="59.5" height="17"/>
			</g>
			<g>
				<rect x="374.5" y="488.1" width="59.5" height="17"/>
			</g>
		</g>
		<g>
			<g>
				<rect x="161.2" y="555.1" width="59.5" height="17"/>
			</g>
			<g>
				<rect x="267.9" y="555.1" width="59.5" height="17"/>
			</g>
			<g>
				<rect x="374.5" y="555.1" width="59.5" height="17"/>
			</g>
		</g>
	</g>
</g>
</svg>
