<?xml version="1.0" encoding="utf-8"?>
<!-- Generator: Adobe Illustrator 17.1.0, SVG Export Plug-In . SVG Version: 6.00 Build 0)  -->
<!DOCTYPE svg PUBLIC "-//W3C//DTD SVG 1.1//EN" "http://www.w3.org/Graphics/SVG/1.1/DTD/svg11.dtd">
<svg version="1.1" id="Capa_1" xmlns="http://www.w3.org/2000/svg" xmlns:xlink="http://www.w3.org/1999/xlink" x="0px" y="0px"
	 viewBox="0 0 595.3 841.9" enable-background="new 0 0 595.3 841.9" xml:space="preserve">
<path d="M479.2,164.4h-66.7V115c0-9.5-7.7-17.3-17.3-17.3c-9.5,0-17.3,7.7-17.3,17.3v49.4H217.3V115c0-9.5-7.7-17.3-17.3-17.3
	s-17.3,7.7-17.3,17.3v49.4h-66.7c-35.7,0-64.9,29.2-64.9,64.9v306c0,35.7,29.2,64.9,64.9,64.9h363.1c35.7,0,64.9-29.2,64.9-64.9
	v-306C544.1,193.5,514.9,164.4,479.2,164.4z M509.6,535.2c0,16.7-13.7,30.4-30.4,30.4H116.1c-16.7,0-30.4-13.7-30.4-30.4v-306
	c0-16.7,13.7-30.4,30.4-30.4h66.7v23.8c0,9.5,7.7,17.3,17.3,17.3s17.3-7.7,17.3-17.3v-23.8h160.1v23.8c0,9.5,7.7,17.3,17.3,17.3
	s17.3-7.7,17.3-17.3v-23.8h66.7c16.7,0,30.4,13.7,30.4,30.4v306H509.6z"/>
<path d="M207.2,319.2h-63.7c-9.5,0-17.3,7.7-17.3,17.3c0,9.5,7.7,17.3,17.3,17.3h63.7c9.5,0,17.3-7.7,17.3-17.3
	C224.4,326.9,216.7,319.2,207.2,319.2z"/>
<path d="M207.2,479.9h-63.7c-9.5,0-17.3,7.7-17.3,17.3s7.7,17.3,17.3,17.3h63.7c9.5,0,17.3-7.7,17.3-17.3S216.7,479.9,207.2,479.9z"
	/>
<path d="M207.2,399.5h-63.7c-9.5,0-17.3,7.7-17.3,17.3c0,9.5,7.7,17.3,17.3,17.3h63.7c9.5,0,17.3-7.7,17.3-17.3
	C224.4,407.3,216.7,399.5,207.2,399.5z"/>
<path d="M329.8,319.2h-64.3c-9.5,0-17.3,7.7-17.3,17.3c0,9.5,7.7,17.3,17.3,17.3h63.7c9.5,0,17.3-7.7,17.3-17.3
	C346.5,326.9,339.3,319.2,329.8,319.2z"/>
<path d="M329.8,479.9h-64.3c-9.5,0-17.3,7.7-17.3,17.3s7.7,17.3,17.3,17.3h63.7c9.5,0,17.3-7.7,17.3-17.3S339.3,479.9,329.8,479.9z"
	/>
<path d="M329.8,399.5h-64.3c-9.5,0-17.3,7.7-17.3,17.3c0,9.5,7.7,17.3,17.3,17.3h63.7c9.5,0,17.3-7.7,17.3-17.3
	C346.5,407.3,339.3,399.5,329.8,399.5z"/>
<path d="M451.8,319.2h-63.7c-9.5,0-17.3,7.7-17.3,17.3c0,9.5,7.7,17.3,17.3,17.3h63.7c9.5,0,17.3-7.7,17.3-17.3
	C469.1,326.9,461.3,319.2,451.8,319.2z"/>
<path d="M451.8,479.9h-63.7c-9.5,0-17.3,7.7-17.3,17.3s7.7,17.3,17.3,17.3h63.7c9.5,0,17.3-7.7,17.3-17.3S461.3,479.9,451.8,479.9z"
	/>
<path d="M451.8,399.5h-63.7c-9.5,0-17.3,7.7-17.3,17.3c0,9.5,7.7,17.3,17.3,17.3h63.7c9.5,0,17.3-7.7,17.3-17.3
	C469.1,407.3,461.3,399.5,451.8,399.5z"/>
</svg>
