<?xml version="1.0" encoding="utf-8"?>
<!-- Generator: Adobe Illustrator 17.1.0, SVG Export Plug-In . SVG Version: 6.00 Build 0)  -->
<!DOCTYPE svg PUBLIC "-//W3C//DTD SVG 1.1//EN" "http://www.w3.org/Graphics/SVG/1.1/DTD/svg11.dtd">
<svg version="1.1" id="Capa_1" xmlns="http://www.w3.org/2000/svg" xmlns:xlink="http://www.w3.org/1999/xlink" x="0px" y="0px"
	 viewBox="0 0 595.3 841.9" enable-background="new 0 0 595.3 841.9" xml:space="preserve">
<title>money_044-money_bags-business-finance-cash</title>
<desc>Created with Sketch.</desc>
<g transform="translate(-189.000000, -236.000000)">
	<g transform="translate(188.500000, 238.000000)">
		<path d="M374.8,276.1c110.8,55.4,276.9,387.7,83.1,387.7h-277c-193.8,0-27.7-332.3,83.1-387.7L374.8,276.1L374.8,276.1z
			 M271.1,303.7c-46.8,27.4-108.4,114.3-136.7,196C103.5,588.9,118.2,636,180.9,636h276.9c62.7,0,77.4-47.1,46.5-136.3
			c-28.2-81.6-89.7-168.3-136.5-195.9L271.1,303.7z"/>
		<path d="M259.6,222.5c-9.1-18.3-2.2-29.5,18.4-29.5h82.7c20.3,0,27.4,11.5,18.4,29.5l-30.6,61.2l24.8,12.4l30.6-61.2
			c18.2-36.4-2.3-69.6-43.2-69.6H278c-41.2,0-61.5,32.9-43.2,69.6l30.6,61.2l24.8-12.4L259.6,222.5z"/>
	</g>
</g>
<g>
	<path d="M254.1,449.4c6.2-20.2,17.7-36.2,34.4-47.9c16.7-11.7,35.9-17.6,57.6-17.6c5.2,0,11.7,0.6,19.3,1.7l-4.5,17
		c-4.7-1-9.5-1.5-14.5-1.5c-16,0-30.6,4.3-43.8,12.8c-13.2,8.5-22.8,20.3-28.8,35.4H351l-4.4,16.7h-77c-0.6,3.7-0.8,7.6-0.8,11.6
		c0,2.4,0.2,5.6,0.6,9.4h71.4l-4.4,16.6H273c5.6,15.7,15,28.1,28.5,37c13.4,8.9,28.7,13.4,45.9,13.4c5.2,0,10.8-0.7,16.8-2.1v16.8
		c-5.2,1-11.2,1.6-18.1,1.6c-22.6,0-42.2-5.9-58.7-17.7c-16.5-11.8-27.7-28.1-33.5-49H236l4.2-16.6h10.6c-0.3-4.5-0.5-8.1-0.5-10.9
		c0-2.6,0.2-6,0.5-10.2h-14.9l4.5-16.7h13.7V449.4z"/>
</g>
</svg>
