<?xml version="1.0" encoding="utf-8"?>
<!-- Generator: Adobe Illustrator 17.1.0, SVG Export Plug-In . SVG Version: 6.00 Build 0)  -->
<!DOCTYPE svg PUBLIC "-//W3C//DTD SVG 1.1//EN" "http://www.w3.org/Graphics/SVG/1.1/DTD/svg11.dtd">
<svg version="1.1" id="Capa_1" xmlns="http://www.w3.org/2000/svg" xmlns:xlink="http://www.w3.org/1999/xlink" x="0px" y="0px"
	 viewBox="0 0 595.3 841.9" enable-background="new 0 0 595.3 841.9" xml:space="preserve" >
<g>
	<path d="M222.6,390.2c6.9-22.4,19.6-40.2,38.2-53.1c18.5-13,39.8-19.5,63.9-19.5c5.8,0,13,0.7,21.4,1.9l-5,18.9
		c-5.2-1.1-10.5-1.7-16.1-1.7c-17.8,0-33.9,4.8-48.6,14.2c-14.6,9.4-25.3,22.5-32,39.3h85.6l-4.9,18.5h-85.4
		c-0.7,4.1-0.9,8.4-0.9,12.9c0,2.7,0.2,6.2,0.7,10.4h79.2l-4.9,18.4h-70.3c6.2,17.4,16.6,31.2,31.6,41c14.9,9.9,31.8,14.9,50.9,14.9
		c5.8,0,12-0.8,18.6-2.3v18.6c-5.8,1.1-12.4,1.8-20.1,1.8c-25.1,0-46.8-6.5-65.1-19.6c-18.3-13.1-30.7-31.2-37.2-54.4h-19.9
		l4.7-18.4h11.8c-0.3-5-0.6-9-0.6-12.1c0-2.9,0.2-6.7,0.6-11.3h-16.5l5-18.5h15.2V390.2z"/>
</g>
<circle fill="none" stroke="#8B8C8D" stroke-width="18" stroke-miterlimit="10" cx="288" cy="420.9" r="186.7"/>
</svg>
