
<svg version="1.1" id="Layer_1" xmlns="http://www.w3.org/2000/svg" xmlns:xlink="http://www.w3.org/1999/xlink" x="0px" y="0px"
	 width="120px" height="120px" viewBox="0 0 120 120" enable-background="new 0 0 120 120" xml:space="preserve" preserveAspectRatio="xMidYMid meet">
	<circle class="bg-circle" fill="#F3F4F5" cx="60" cy="60" r="60"/>
	<rect x="32.974" y="45.776" class="bg-hig" fill="#A9E6F5" width="54.051" height="41.25"/>
	<path class="bg-line" fill="#003A49" d="M73.635,35.967c-0.457-2.237-2.436-3.925-4.807-3.925c-0.541,0-0.98,0.439-0.98,0.981
	c0,0.543,0.439,0.98,0.98,0.98c1.623,0,2.943,1.32,2.943,2.943c0,1.621-1.32,2.942-2.943,2.942c-0.541,0-0.98,0.438-0.98,0.98
	c0,0.544,0.439,0.981,0.98,0.981c2.367,0,4.35-1.688,4.807-3.924h12.852v6.867H74.715h-1.963H60.981h-1.962H47.249h-1.963H33.513
	v-6.867h13.735h2.942c0.541,0,0.98-0.439,0.98-0.98c0-0.543-0.439-0.98-0.98-0.98h-1.78c0.405-1.14,1.482-1.963,2.761-1.963
	c1.623,0,2.943,1.32,2.943,2.943c0,1.621-1.32,2.942-2.943,2.942c-0.541,0-0.98,0.438-0.98,0.98c0,0.544,0.439,0.981,0.98,0.981
	c2.704,0,4.904-2.2,4.904-4.904c0-2.705-2.2-4.905-4.904-4.905c-2.367,0-4.35,1.688-4.807,3.925H31.552v8.828v2.941v10.791v1.963
	v11.773v1.961v13.732h13.733h1.963h11.771h1.962h11.771h1.963h13.732V74.225v-1.961V60.491v-1.963V47.737v-2.941v-8.828H73.635z
	 M60.981,46.756h11.771v11.771H60.981V46.756z M72.752,72.264H60.981V60.491h11.771V72.264z M47.249,60.491h11.771v11.773H47.249
	V60.491z M47.249,46.756h11.771v11.771H47.249V46.756z M33.513,47.737v-0.98h11.772v11.771H33.513V47.737z M33.513,60.491h11.772
	v11.773H33.513V60.491z M33.513,85.994v-11.77h11.772v11.77H33.513z M47.249,85.994v-11.77h11.771v11.77H47.249z M60.981,85.994
	v-11.77h11.771v11.77H60.981z M86.486,85.994H74.715v-11.77h11.771V85.994z M86.486,72.264H74.715V60.491h11.771V72.264z
	 M74.715,58.528V46.756h11.771v0.98v10.791H74.715z"/>
	<path  class="bg-line" fill="#003A49" d="M57.058,34.004c-0.542,0-0.982-0.438-0.982-0.98c0-0.542,0.44-0.981,0.982-0.981
	c2.703,0,4.903,2.2,4.903,4.905c0,2.704-2.2,4.904-4.903,4.904c-0.542,0-0.982-0.438-0.982-0.981c0-0.542,0.44-0.98,0.982-0.98
	c1.622,0,2.942-1.321,2.942-2.942C60,35.325,58.68,34.004,57.058,34.004z M62.941,34.004c-0.539,0-0.98-0.438-0.98-0.98
	c0-0.542,0.441-0.981,0.98-0.981c2.707,0,4.906,2.2,4.906,4.905c0,2.704-2.199,4.904-4.906,4.904c-0.539,0-0.98-0.438-0.98-0.981
	c0-0.542,0.441-0.98,0.98-0.98c1.623,0,2.943-1.321,2.943-2.942C65.885,35.325,64.564,34.004,62.941,34.004z M62.25,70.994
	c-0.385-0.385-0.385-1.004,0-1.387l3.229-3.232l-3.229-3.229c-0.385-0.385-0.385-1.004,0-1.389c0.383-0.383,1.004-0.383,1.387,0
	l3.23,3.23l3.23-3.23c0.383-0.383,1.004-0.383,1.387,0c0.385,0.385,0.385,1.004,0,1.389l-3.23,3.229l3.23,3.232
	c0.385,0.383,0.385,1.002,0,1.387c-0.191,0.191-0.443,0.287-0.693,0.287c-0.252,0-0.504-0.096-0.693-0.287l-3.23-3.23l-3.23,3.23
	c-0.191,0.191-0.441,0.287-0.695,0.287C62.691,71.281,62.441,71.186,62.25,70.994z"/>
</svg>
