<svg version="1.1" id="Layer_1" xmlns="http://www.w3.org/2000/svg" xmlns:xlink="http://www.w3.org/1999/xlink" x="0px" y="0px"
	 width="120px" height="120px" viewBox="0 0 120 120" enable-background="new 0 0 120 120" xml:space="preserve" preserveAspectRatio="xMidYMid meet">
	<circle class="bg-circle" fill="#F3F4F5" cx="60" cy="60" r="60"/>
	<path class="bg-hig" fill="#A9E6F5" d="M65.603,45.147l6.509-11.919l-0.345-0.241c-1.183-0.826-2.136-0.922-2.75-0.922
	c-1.308,0-2.597,0.53-3.989,1.101c-1.26,0.523-2.689,1.118-4.14,1.118c-0.568,0-1.117-0.093-1.628-0.276
	c-2.768-1.011-4.867-1.637-6.784-1.637c-1.837,0-3.358,0.597-4.934,1.938l-0.319,0.271l7.1,10.568H65.603z"/>
	<path class="bg-hig" fill="#A9E6F5" d="M74.854,55.478c-3.862-4.6-7.733-7.399-8.827-8.147l-0.12-0.082H54.062l-0.121,0.086
	c-1.81,1.271-5.361,4.021-8.821,8.144c-6.022,7.169-9.076,14.976-9.076,23.204c0,5.088,4.198,9.227,9.356,9.227h29.198
	c2.528,0,4.896-0.98,6.667-2.763c1.73-1.739,2.677-4.035,2.664-6.464C83.93,70.438,80.876,62.631,74.854,55.478z"/>
	<path class="bg-line" fill="#003A49" d="M52.476,30.057c-2.804,0-5.211,1.114-7.577,3.505c-0.424,0.429-0.486,1.104-0.151,1.605l7.2,10.719
	l-0.182,0.134c-1.697,1.241-5.045,3.919-8.412,7.896c-2.801,3.317-5.039,6.854-6.65,10.514c-2.019,4.593-3.041,9.388-3.041,14.252
	c0,6.376,5.266,11.564,11.738,11.564h29.198c6.474,0,11.739-5.188,11.739-11.564c0-4.864-1.023-9.659-3.042-14.252
	c-1.624-3.69-3.862-7.228-6.65-10.513c-3.429-4.065-6.813-6.747-8.526-7.983l-0.168-0.122l6.66-12.173
	c0.273-0.505,0.176-1.129-0.238-1.516c-1.658-1.595-3.404-2.369-5.344-2.369c-1.826,0-3.531,0.706-4.901,1.274L64,31.079
	c-1.508,0.613-2.889,1.141-3.916,0.749C57.049,30.736,54.715,30.057,52.476,30.057z M74.599,87.674H45.4
	c-5.029,0-9.122-4.034-9.122-8.992c0-8.173,3.035-15.928,9.021-23.054c3.442-4.101,6.977-6.837,8.776-8.102l0.061-0.044h11.697
	l0.061,0.042c1.088,0.743,4.938,3.526,8.781,8.104c5.984,7.11,9.02,14.866,9.02,23.054c0.012,2.366-0.91,4.604-2.596,6.299
	C79.372,86.718,77.062,87.674,74.599,87.674z M65.463,44.913H54.447l-6.913-10.291l0.159-0.136c1.53-1.301,3.006-1.881,4.782-1.881
	c1.882,0,3.96,0.621,6.704,1.623c0.537,0.192,1.111,0.29,1.708,0.29c1.497,0,2.948-0.604,4.229-1.136
	c1.369-0.562,2.639-1.082,3.899-1.082c0.583,0,1.487,0.091,2.616,0.879l0.172,0.12L65.463,44.913z"/>
	<path class="bg-line" fill="#003A49" d="M47.986,72.457c-0.677,0-1.115,0.43-1.115,1.095s0.438,1.095,1.115,1.095h3.391l0.05,0.108
	c1.806,3.83,5.474,6.304,9.347,6.304c3.812,0,7.434-2.274,9.226-5.795c0.237-0.352,0.308-0.69,0.21-0.975
	c-0.086-0.257-0.307-0.456-0.62-0.559l-0.044-0.021c-0.646-0.423-1.326-0.235-1.547,0.417c-1.289,3.042-4.122,4.999-7.223,4.999
	c-2.852,0-5.458-1.569-6.973-4.197l-0.162-0.281h6.352c0.678,0,1.117-0.43,1.117-1.095s-0.439-1.095-1.117-1.095h-7.166
	l-0.034-0.146c-0.201-0.869-0.295-1.615-0.295-2.35c0-0.667,0.073-1.351,0.224-2.089l0.03-0.15h7.241
	c0.678,0,1.117-0.429,1.117-1.093c0-0.665-0.439-1.095-1.117-1.095h-6.465l0.147-0.276c1.495-2.792,4.149-4.459,7.101-4.459
	c3.088,0,5.911,1.941,7.203,4.951c0.541,0.523,0.968,0.639,1.569,0.457c0.438-0.44,0.677-0.883,0.443-1.571
	c-1.723-3.869-5.257-6.283-9.216-6.283c-4.32,0-8.144,2.771-9.739,7.059l-0.046,0.123h-3.004c-0.677,0-1.115,0.429-1.115,1.093
	c0,0.665,0.438,1.095,1.115,1.095h2.47l-0.03,0.215c-0.093,0.646-0.162,1.188-0.162,1.77c0,0.812,0.094,1.637,0.287,2.522
	l0.051,0.228H47.986z"/>
</svg>
