<svg version="1.1" id="Layer_1" xmlns="http://www.w3.org/2000/svg" xmlns:xlink="http://www.w3.org/1999/xlink" x="0px" y="0px"
	 width="30px" height="30px" viewBox="0 0 30 30" enable-background="new 0 0 30 30" xml:space="preserve">
	<path fill="#FFFFFF" d="M27.852,2.875H17.627c-1.064,0-1.93,0.865-1.93,1.928v6.142c0,1.062,0.866,1.928,1.93,1.928h0.869
			l1.164,1.555c0.109,0.184,0.318,0.289,0.57,0.289c0.135,0,0.338-0.042,0.555-0.268l1.178-1.576h5.889
			c1.064,0,1.93-0.865,1.93-1.928V4.803C29.781,3.74,28.916,2.875,27.852,2.875z M28.359,10.944c0,0.31-0.242,0.553-0.555,0.553
			h-6.201c-0.193,0-0.379,0.083-0.553,0.265l-0.842,1.107l-0.826-1.083c-0.107-0.184-0.316-0.289-0.57-0.289h-1.23
			c-0.311,0-0.555-0.243-0.555-0.553V4.803c0-0.31,0.244-0.553,0.555-0.553h10.223c0.312,0,0.555,0.243,0.555,0.553V10.944z"/>
	<path fill="#FFFFFF" d="M19.496,7.366h3.857c0.371,0,0.674-0.303,0.674-0.674s-0.303-0.674-0.674-0.674h-3.857
			c-0.373,0-0.676,0.303-0.676,0.674S19.123,7.366,19.496,7.366z"/>
	<path fill="#FFFFFF" d="M25.91,8.474h-6.414c-0.373,0-0.676,0.303-0.676,0.675s0.303,0.675,0.676,0.675h6.414
			c0.197,0,0.385-0.083,0.516-0.227c0.119-0.133,0.176-0.301,0.158-0.448C26.584,8.776,26.281,8.474,25.91,8.474z"/>

	<path fill="#FFFFFF" d="M10.466,18.467c1.659-1.062,2.646-2.869,2.646-4.855c0-3.166-2.545-5.742-5.674-5.742
		s-5.674,2.576-5.674,5.742c0,1.986,0.987,3.794,2.646,4.855c-2.513,0.93-4.193,3.354-4.193,6.066v1.895
		c0,0.385,0.31,0.697,0.689,0.697h13.063c0.38,0,0.688-0.312,0.688-0.697v-1.895C14.66,21.821,12.979,19.396,10.466,18.467z
		 M3.144,13.611c0-2.397,1.927-4.349,4.295-4.349s4.295,1.951,4.295,4.349s-1.927,4.348-4.295,4.348S3.144,16.009,3.144,13.611z
		 M13.281,25.73H1.597v-1.197c0-2.792,2.243-5.063,5.001-5.063H8.28c2.758,0,5.001,2.271,5.001,5.063V25.73z"/>
	<path id="Combined-Shape_3_" fill="#FFFFFF" d="M10.977,13.075c0.026,0.176,0.039,0.356,0.039,0.536
		c0,0.357-0.285,0.647-0.639,0.647s-0.64-0.29-0.64-0.647c0-0.116-0.009-0.232-0.025-0.347c-0.052-0.354,0.189-0.683,0.538-0.735
		C10.6,12.476,10.926,12.722,10.977,13.075z M10.14,14.95c0.276,0.223,0.323,0.629,0.104,0.909
		c-0.684,0.872-1.706,1.373-2.805,1.373c-0.353,0-0.64-0.29-0.64-0.647s0.287-0.647,0.64-0.647c0.706,0,1.363-0.321,1.802-0.882
		C9.461,14.774,9.864,14.728,10.14,14.95z"/>
</svg>
