<svg version="1.1" id="Layer_1" xmlns="http://www.w3.org/2000/svg" xmlns:xlink="http://www.w3.org/1999/xlink" x="0px" y="0px"
	 width="120px" height="120px" viewBox="0 0 120 120" enable-background="new 0 0 120 120" xml:space="preserve" preserveAspectRatio="xMidYMid meet">
	<circle class="bg-circle" fill="#F3F4F5" cx="60" cy="60" r="60"/>
	<path class="bg-line" fill="#003A49" d="M60,25.916c-18.795,0-34.085,15.29-34.085,34.084c0,18.793,15.29,34.084,34.085,34.084
			c18.794,0,34.085-15.291,34.085-34.084C94.085,41.206,78.794,25.916,60,25.916z"/>

	<path fill="#A2E5F5" d="M60,28.396c-17.426,0-31.604,14.178-31.604,31.604c0,17.426,14.178,31.604,31.604,31.604
		S91.604,77.426,91.604,60C91.604,42.574,77.426,28.396,60,28.396z"/>

	<path class="bg-line" fill="#003A49" d="M41.221,65.002c-0.9,0-1.459,0.561-1.459,1.461s0.559,1.461,1.459,1.461h5.489l0.156,0.336
			c2.78,6,8.419,9.875,14.364,9.875c5.859,0,11.426-3.561,14.181-9.074c0.342-0.518,0.44-0.971,0.313-1.342
			c-0.109-0.32-0.389-0.568-0.788-0.701l-0.139-0.068c-0.848-0.562-1.694-0.348-1.985,0.516c-2.068,4.971-6.607,8.158-11.578,8.158
			c-4.57,0-8.742-2.553-11.163-6.83l-0.492-0.869h10.429c0.9,0,1.46-0.561,1.46-1.461c0-0.898-0.56-1.459-1.46-1.459H48.561
			l-0.104-0.455c-0.318-1.414-0.467-2.621-0.467-3.803c0-1.079,0.115-2.185,0.354-3.381l0.094-0.468h11.571
			c0.899,0,1.459-0.561,1.459-1.461c0-0.899-0.56-1.459-1.459-1.459H49.416l0.449-0.854c2.392-4.544,6.642-7.255,11.369-7.255
			c4.935,0,9.443,3.14,11.518,8.009c0.729,0.701,1.278,0.858,2.055,0.637c0.707-0.741,0.857-1.32,0.578-2.161
			c-2.645-6.033-8.072-9.812-14.15-9.812c-6.641,0-12.516,4.34-14.969,11.054l-0.141,0.383h-4.904c-0.9,0-1.459,0.56-1.459,1.459
			c0,0.9,0.559,1.461,1.459,1.461h4.193l-0.092,0.662c-0.117,0.847-0.251,1.806-0.251,2.778c0,1.274,0.146,2.569,0.444,3.959
			l0.152,0.705H41.221z"/>

</svg>
