<svg version="1.1" id="Layer_1" xmlns="http://www.w3.org/2000/svg" xmlns:xlink="http://www.w3.org/1999/xlink" x="0px" y="0px"
	 width="120px" height="120px" viewBox="0 0 120 120" enable-background="new 0 0 120 120" xml:space="preserve" preserveAspectRatio="xMidYMid meet">
	<circle class="bg-circle" fill="#F3F4F5" cx="60" cy="60" r="60"/>
	<path class="bg-line" fill="#003A49" d="M90.783,59.358C84.334,48.71,72.621,42.034,60,42.034c-12.621,0-24.346,6.676-30.783,17.324
		c-0.266,0.383-0.266,0.9,0,1.283C35.666,71.29,47.378,77.966,60,77.966c12.622,0,24.346-6.676,30.784-17.324
		C91.049,60.259,91.049,59.741,90.783,59.358L90.783,59.358z M60,75.4c-11.444,0-22.107-5.9-28.025-15.4
		C37.892,50.5,48.555,44.6,60,44.6c11.446,0,22.108,5.9,28.026,15.4C82.107,69.5,71.445,75.4,60,75.4L60,75.4z"/>
	<path  class="bg-line" fill="#003A49" d="M60,48.45c-6.576,0-11.838,5.134-11.838,11.55S53.423,71.549,60,71.549
		c6.577,0,11.838-5.133,11.838-11.549S66.576,48.45,60,48.45L60,48.45z M60,68.982c-5.134,0-9.207-3.986-9.207-8.982
		s4.084-8.982,9.207-8.982c5.124,0,9.208,3.986,9.208,8.982S65.135,68.982,60,68.982L60,68.982z"/>
	<path class="bg-hig" fill="#A9E6F5" d="M60,68.982c-5.134,0-9.207-3.986-9.207-8.982s4.084-8.982,9.207-8.982
		c5.124,0,9.208,3.986,9.208,8.982S65.135,68.982,60,68.982L60,68.982z"/>
	<path class="bg-line" fill="#003A49" d="M60,54.867v2.565c1.442,0,2.631,1.16,2.631,2.567S61.441,62.567,60,62.567
	c-1.44,0-2.63-1.16-2.63-2.567h-2.631c0,2.826,2.364,5.133,5.261,5.133c2.897,0,5.26-2.307,5.26-5.133S62.896,54.867,60,54.867
	L60,54.867z"/>
</svg>
