<svg version="1.1" id="Layer_1" xmlns="http://www.w3.org/2000/svg" xmlns:xlink="http://www.w3.org/1999/xlink" x="0px" y="0px"
	 width="30px" height="30px" viewBox="0 0 30 30" enable-background="new 0 0 30 30" xml:space="preserve">

	<path fill="#FFFFFF" d="M25.936,8.847h-7.533V3.489c0-0.322-0.268-0.584-0.598-0.584H4.065c-0.33,0-0.6,0.262-0.6,0.584v23.021
		c0,0.322,0.27,0.584,0.6,0.584h21.871c0.33,0,0.6-0.262,0.6-0.584V9.431C26.535,9.108,26.266,8.847,25.936,8.847z M17.207,25.931
		H4.663V4.075h12.544V25.931z M25.338,25.926h-6.936V10.011h6.936V25.926z"/>
	<path fill="#FFFFFF" d="M14.996,17.813c0.33,0,0.599-0.262,0.599-0.585v-1.073c0-0.322-0.269-0.584-0.599-0.584
		s-0.599,0.262-0.599,0.584v1.073C14.397,17.552,14.666,17.813,14.996,17.813z"/>
	<path fill="#FFFFFF" d="M14.996,11.177c0.33,0,0.599-0.263,0.599-0.585V9.515c0-0.322-0.269-0.586-0.599-0.586
		s-0.599,0.264-0.599,0.586v1.077C14.397,10.914,14.666,11.177,14.996,11.177z"/>
	<path fill="#FFFFFF" d="M14.996,14.493c0.33,0,0.599-0.264,0.599-0.586v-1.072c0-0.322-0.269-0.585-0.599-0.585
		s-0.599,0.263-0.599,0.585v1.072C14.397,14.229,14.666,14.493,14.996,14.493z"/>
	<path fill="#FFFFFF" d="M12.287,7.856c0.33,0,0.599-0.264,0.599-0.586V6.198c0-0.322-0.269-0.585-0.599-0.585
		s-0.599,0.263-0.599,0.585v1.072C11.688,7.593,11.957,7.856,12.287,7.856z"/>
	<path fill="#FFFFFF" d="M14.996,21.129c0.33,0,0.599-0.262,0.599-0.585v-1.072c0-0.322-0.269-0.584-0.599-0.584
		s-0.599,0.262-0.599,0.584v1.072C14.397,20.867,14.666,21.129,14.996,21.129z"/>
	<path fill="#FFFFFF" d="M12.287,11.177c0.33,0,0.599-0.263,0.599-0.585V9.515c0-0.322-0.269-0.586-0.599-0.586
		s-0.599,0.264-0.599,0.586v1.077C11.688,10.914,11.957,11.177,12.287,11.177z"/>
	<path fill="#FFFFFF" d="M14.996,24.45c0.33,0,0.599-0.262,0.599-0.585v-1.077c0-0.323-0.269-0.585-0.599-0.585
		s-0.599,0.262-0.599,0.585v1.077C14.397,24.188,14.666,24.45,14.996,24.45z"/>
	<path fill="#FFFFFF" d="M20.246,22.202h3.248c0.33,0,0.598-0.262,0.598-0.585s-0.268-0.585-0.598-0.585h-3.248
		c-0.33,0-0.598,0.262-0.598,0.585S19.916,22.202,20.246,22.202z"/>
	<path fill="#FFFFFF" d="M20.246,17.338h3.248c0.33,0,0.598-0.262,0.598-0.585c0-0.322-0.268-0.584-0.598-0.584h-3.248
		c-0.33,0-0.598,0.262-0.598,0.584C19.648,17.076,19.916,17.338,20.246,17.338z"/>
	<path fill="#FFFFFF" d="M20.246,14.909h3.248c0.33,0,0.598-0.263,0.598-0.585s-0.268-0.585-0.598-0.585h-3.248
		c-0.33,0-0.598,0.263-0.598,0.585S19.916,14.909,20.246,14.909z"/>
	<path fill="#FFFFFF" d="M14.996,7.856c0.33,0,0.599-0.264,0.599-0.586V6.198c0-0.322-0.269-0.585-0.599-0.585
		s-0.599,0.263-0.599,0.585v1.072C14.397,7.593,14.666,7.856,14.996,7.856z"/>
	<path fill="#FFFFFF" d="M20.246,12.475h3.248c0.33,0,0.598-0.263,0.598-0.585s-0.268-0.585-0.598-0.585h-3.248
		c-0.33,0-0.598,0.263-0.598,0.585S19.916,12.475,20.246,12.475z"/>
	<path fill="#FFFFFF" d="M12.287,14.493c0.33,0,0.599-0.264,0.599-0.586v-1.072c0-0.322-0.269-0.585-0.599-0.585
		s-0.599,0.263-0.599,0.585v1.072C11.688,14.229,11.957,14.493,12.287,14.493z"/>
	<path fill="#FFFFFF" d="M20.246,19.772h3.248c0.33,0,0.598-0.262,0.598-0.585s-0.268-0.585-0.598-0.585h-3.248
		c-0.33,0-0.598,0.262-0.598,0.585S19.916,19.772,20.246,19.772z"/>
	<path fill="#FFFFFF" d="M20.246,24.636h3.248c0.33,0,0.598-0.262,0.598-0.584c0-0.323-0.268-0.585-0.598-0.585h-3.248
		c-0.33,0-0.598,0.262-0.598,0.585C19.648,24.374,19.916,24.636,20.246,24.636z"/>
	<path fill="#FFFFFF" d="M6.874,14.493c0.33,0,0.6-0.264,0.6-0.586v-1.072c0-0.322-0.27-0.585-0.6-0.585s-0.598,0.263-0.598,0.585
		v1.072C6.276,14.229,6.543,14.493,6.874,14.493z"/>
	<path fill="#FFFFFF" d="M6.874,11.177c0.33,0,0.6-0.263,0.6-0.585V9.515c0-0.322-0.27-0.586-0.6-0.586S6.276,9.192,6.276,9.515
		v1.077C6.276,10.914,6.543,11.177,6.874,11.177z"/>
	<path fill="#FFFFFF" d="M6.874,7.856c0.33,0,0.6-0.264,0.6-0.586V6.198c0-0.322-0.27-0.585-0.6-0.585S6.276,5.876,6.276,6.198
		v1.072C6.276,7.593,6.543,7.856,6.874,7.856z"/>
	<path fill="#FFFFFF" d="M6.874,21.129c0.33,0,0.6-0.262,0.6-0.585v-1.072c0-0.322-0.27-0.584-0.6-0.584s-0.598,0.262-0.598,0.584
		v1.072C6.276,20.867,6.543,21.129,6.874,21.129z"/>
	<path fill="#FFFFFF" d="M6.874,24.45c0.33,0,0.6-0.262,0.6-0.585v-1.077c0-0.323-0.27-0.585-0.6-0.585s-0.598,0.262-0.598,0.585
		v1.077C6.276,24.188,6.543,24.45,6.874,24.45z"/>
	<path fill="#FFFFFF" d="M9.583,24.45c0.33,0,0.6-0.262,0.6-0.585v-1.077c0-0.323-0.27-0.585-0.6-0.585s-0.598,0.262-0.598,0.585
		v1.077C8.985,24.188,9.252,24.45,9.583,24.45z"/>
	<path fill="#FFFFFF" d="M6.874,17.813c0.33,0,0.6-0.262,0.6-0.585v-1.073c0-0.322-0.27-0.584-0.6-0.584s-0.598,0.262-0.598,0.584
		v1.073C6.276,17.552,6.543,17.813,6.874,17.813z"/>
	<path fill="#FFFFFF" d="M9.583,21.129c0.33,0,0.6-0.262,0.6-0.585v-1.072c0-0.322-0.27-0.584-0.6-0.584s-0.598,0.262-0.598,0.584
		v1.072C8.985,20.867,9.252,21.129,9.583,21.129z"/>
	<path fill="#FFFFFF" d="M12.287,24.45c0.33,0,0.599-0.262,0.599-0.585v-1.077c0-0.323-0.269-0.585-0.599-0.585
		s-0.599,0.262-0.599,0.585v1.077C11.688,24.183,11.962,24.45,12.287,24.45z"/>
	<path fill="#FFFFFF" d="M9.583,7.856c0.33,0,0.6-0.264,0.6-0.586V6.198c0-0.322-0.27-0.585-0.6-0.585S8.985,5.876,8.985,6.198
		v1.072C8.985,7.593,9.252,7.856,9.583,7.856z"/>
	<path fill="#FFFFFF" d="M12.287,21.129c0.33,0,0.599-0.262,0.599-0.585v-1.072c0-0.322-0.269-0.584-0.599-0.584
		s-0.599,0.262-0.599,0.584v1.072C11.688,20.867,11.957,21.129,12.287,21.129z"/>
	<path fill="#FFFFFF" d="M12.287,17.813c0.33,0,0.599-0.262,0.599-0.585v-1.073c0-0.322-0.269-0.584-0.599-0.584
		s-0.599,0.262-0.599,0.584v1.073C11.688,17.546,11.962,17.813,12.287,17.813z"/>
	<path fill="#FFFFFF" d="M9.583,11.177c0.33,0,0.6-0.263,0.6-0.585V9.515c0-0.322-0.27-0.586-0.6-0.586S8.985,9.192,8.985,9.515
		v1.077C8.985,10.914,9.252,11.177,9.583,11.177z"/>
	<path fill="#FFFFFF" d="M9.583,17.813c0.33,0,0.6-0.262,0.6-0.585v-1.073c0-0.322-0.27-0.584-0.6-0.584s-0.598,0.262-0.598,0.584
		v1.073C8.985,17.552,9.252,17.813,9.583,17.813z"/>
	<path fill="#FFFFFF" d="M9.583,14.493c0.33,0,0.6-0.264,0.6-0.586v-1.072c0-0.322-0.27-0.585-0.6-0.585s-0.598,0.263-0.598,0.585
		v1.072C8.985,14.229,9.252,14.493,9.583,14.493z"/>
</svg>
