<svg version="1.1" id="Layer_1" xmlns="http://www.w3.org/2000/svg" xmlns:xlink="http://www.w3.org/1999/xlink" x="0px" y="0px"
	 width="120px" height="120px" viewBox="0 0 120 120" enable-background="new 0 0 120 120" xml:space="preserve" preserveAspectRatio="xMidYMid meet">
	<circle class="bg-circle" fill="#F3F4F5" cx="60" cy="60" r="60"/>
	<path class="bg-line" fill="#003A49" d="M79.901,56.899c-0.606,0-1.097,0.492-1.097,1.101v2.347c0,0.607,0.49,1.099,1.097,1.099
	c0.607,0,1.097-0.491,1.097-1.099V58C80.998,57.392,80.509,56.899,79.901,56.899L79.901,56.899z"/>
	<path class="bg-hig" fill="#A9E6F5" d="M65.549,36.722c0,2.516-0.808,4.842-2.178,6.734c-3.488-0.401-4.654,0.266-8.321,0.766
	c-2.206,0.301-5,1.833-7.067,2.271c-3.262-2.029-5.434-5.646-5.434-9.771c0-6.352,5.148-11.5,11.5-11.5S65.549,30.37,65.549,36.722z
	"/>
	<path class="bg-line" fill="#003A49" d="M90.438,58.073h-1.343c-1.335-3.575-3.713-6.853-6.925-9.541V39.23
	c0-0.608-0.492-1.101-1.097-1.101c-3.685,0-7.02,1.897-8.915,5.01c-2.017-0.632-4.09-1.064-6.202-1.293
	c0.653-1.563,0.995-3.259,0.995-4.964c0-7.075-5.744-12.831-12.804-12.831c-7.061,0-12.804,5.756-12.804,12.831
	c0,3.601,1.529,7.041,4.151,9.457c-1.011,0.637-1.977,1.333-2.891,2.091c-4.956,4.101-7.843,9.474-8.236,15.25
	c-0.866-0.339-2.024-1.011-3.112-2.058c-0.022-0.02-0.043-0.042-0.065-0.062c1.518-1.782,2.983-4.119,2.983-6.494
	c0-2.223-1.806-4.031-4.024-4.031s-4.023,1.809-4.023,4.031c0,2.535,0.874,4.703,2.118,6.432c-0.934,0.912-1.677,1.486-1.687,1.492
	c-0.481,0.368-0.576,1.06-0.208,1.542c0.369,0.483,1.057,0.576,1.538,0.208c0.087-0.066,0.841-0.647,1.795-1.575
	c1.536,1.494,3.289,2.46,4.663,2.817c0.346,7.188,4.622,13.835,11.628,18.046l-0.65,3.908c-0.166,1,0.114,2.019,0.77,2.793
	c0.654,0.775,1.611,1.219,2.623,1.219h2.278c1.687,0,3.113-1.21,3.392-2.88l0.255-1.539c2.505,0.599,5.091,0.9,7.701,0.9
	c2.606,0,5.192-0.304,7.7-0.903l0.257,1.542c0.276,1.67,1.704,2.88,3.392,2.88h2.277c1.014,0,1.968-0.444,2.623-1.219
	c0.654-0.774,0.935-1.794,0.768-2.793l-0.652-3.924c4.941-2.973,8.591-7.193,10.39-12.007h1.342c1.896,0,3.438-1.548,3.438-3.447
	v-7.038C93.875,59.618,92.333,58.073,90.438,58.073L90.438,58.073z M28.319,55.066c0-1.011,0.821-1.833,1.83-1.833
	c1.008,0,1.829,0.822,1.829,1.833c0,1.365-0.762,3.007-2.21,4.776C28.96,58.61,28.319,57.021,28.319,55.066L28.319,55.066z
	 M43.537,36.883c0-5.862,4.76-10.631,10.61-10.631c5.85,0,10.609,4.769,10.609,10.631c0,1.688-0.384,3.299-1.138,4.791
	c-0.424-0.017-0.851-0.024-1.277-0.024c-1.056,0-2.102,0.05-3.136,0.146c0.459-0.582,0.721-1.255,0.721-1.979
	c0-1.999-1.983-3.614-4.684-3.962v-3.641c1.479,0.264,2.49,1.034,2.49,1.735c0,0.608,0.489,1.102,1.096,1.102
	s1.098-0.493,1.098-1.102c0-1.998-1.983-3.612-4.684-3.962v-0.144c0-0.606-0.489-1.1-1.096-1.1s-1.098,0.493-1.098,1.1v0.144
	c-2.698,0.35-4.683,1.964-4.683,3.962c0,2,1.984,3.615,4.683,3.962v3.642c-1.478-0.265-2.487-1.034-2.487-1.736
	c0-0.609-0.492-1.1-1.097-1.1c-0.606,0-1.099,0.49-1.099,1.1c0,1.608,1.285,2.968,3.192,3.618c-1.4,0.488-2.753,1.069-4.046,1.745
	C45.017,43.169,43.537,40.104,43.537,36.883L43.537,36.883z M53.05,35.688c-1.478-0.265-2.487-1.034-2.487-1.738
	c0-0.701,1.01-1.472,2.487-1.735V35.688L53.05,35.688z M55.243,41.553v-3.475c1.479,0.266,2.49,1.035,2.49,1.738
	C57.733,40.519,56.723,41.288,55.243,41.553L55.243,41.553z M91.682,68.559c0,0.687-0.559,1.245-1.244,1.245h-2.12
	c-0.474,0-0.893,0.305-1.042,0.757c-1.587,4.824-5.25,9.06-10.317,11.927c-0.401,0.228-0.617,0.681-0.542,1.139l0.778,4.671
	c0.061,0.368-0.039,0.728-0.278,1.011c-0.24,0.284-0.577,0.44-0.948,0.44H73.69c-0.611,0-1.127-0.437-1.229-1.042l-0.452-2.725
	c-0.051-0.307-0.229-0.578-0.493-0.747c-0.179-0.114-0.383-0.172-0.589-0.172c-0.099,0-0.198,0.015-0.294,0.04
	c-2.683,0.747-5.473,1.127-8.292,1.127c-2.823,0-5.614-0.378-8.292-1.126c-0.302-0.083-0.622-0.034-0.884,0.133
	c-0.262,0.168-0.442,0.439-0.493,0.748l-0.452,2.724c-0.102,0.602-0.617,1.04-1.227,1.04h-2.277c-0.373,0-0.709-0.156-0.948-0.44
	c-0.241-0.283-0.341-0.643-0.279-1.011l0.774-4.656c0.076-0.457-0.141-0.912-0.542-1.14c-7.018-3.964-11.207-10.493-11.207-17.461
	c0-11.685,11.587-21.192,25.827-21.192c3.432,0,6.789,0.56,9.981,1.661c0.521,0.18,1.096-0.058,1.341-0.554
	c1.242-2.52,3.6-4.194,6.31-4.555v8.653c0,0.334,0.153,0.65,0.412,0.857c3.317,2.669,5.701,5.988,6.89,9.606
	c0.149,0.451,0.568,0.756,1.043,0.756h2.119c0.686,0,1.244,0.559,1.244,1.247V68.559L91.682,68.559z"/>
</svg>
