<svg version="1.1" id="Layer_1" xmlns="http://www.w3.org/2000/svg" xmlns:xlink="http://www.w3.org/1999/xlink" x="0px" y="0px"
	 width="120px" height="120px" viewBox="0 0 120 120" enable-background="new 0 0 120 120" xml:space="preserve" preserveAspectRatio="xMidYMid meet">
	
	<circle class="bg-circle" fill="#F3F4F5" cx="60" cy="60" r="60"/>
	<path class="bg-line" fill="#003A49" d="M74.377,90.436c-6.789,0-12.312-5.523-12.312-12.312s5.523-12.312,12.312-12.312
		s12.312,5.522,12.312,12.312S81.166,90.436,74.377,90.436z"/>
	<path class="bg-line" fill="#003A49" d="M74.377,92.462c-7.906,0-14.338-6.433-14.338-14.339s6.432-14.339,14.338-14.339
		s14.339,6.433,14.339,14.339S82.283,92.462,74.377,92.462z"/>
	<path class="bg-hig" fill="#A9E6F5" d="M74.377,90.436c-6.789,0-12.312-5.523-12.312-12.312s5.523-12.312,12.312-12.312
		s12.312,5.522,12.312,12.312S81.166,90.436,74.377,90.436z"/>
	<path class="bg-line" fill="#003A49" d="M80.79,77.11h-5.399v-5.144c0-0.559-0.455-1.013-1.014-1.013s-1.014,0.454-1.014,1.013v5.144h-5.398
		c-0.559,0-1.014,0.454-1.014,1.013s0.455,1.014,1.014,1.014h5.398v5.656c0,0.559,0.455,1.013,1.014,1.013s1.014-0.454,1.014-1.013
		v-5.656h5.399c0.559,0,1.013-0.455,1.013-1.014S81.349,77.11,80.79,77.11z"/>
	<path class="bg-line" fill="#003A49" stroke="#003A49" stroke-width="0.1" d="M84.536,46.78l-3.362-3.362
		c-0.336-0.337-0.809-0.537-1.35-0.535c-0.54,0.002-1.014,0.208-1.354,0.547c-0.673-0.672-0.738-0.874-0.735-1.686
		c0.07-0.337,0.004-0.811-0.062-1.283c-0.197-1.419-0.866-2.766-1.875-3.774l-3.496-3.498c-2.019-2.017-2.959-2.959-5.59-4.096
		c-5.461-2.475-11.138-2.042-19.396,1.643c-0.406,0.137-0.611,0.611-0.547,1.084c0,0.135,0.068,0.338,0.201,0.473
		c0.135,0.133,0.404,0.269,0.674,0.266l1.217-0.005c4.258-0.086,6.42-0.097,10.252,3.736c1.816,1.815,1.736,4.588-0.232,6.555
		l-8.145,8.145L32.411,69.315c-1.493,1.492-1.505,3.925-0.024,5.402l1.344,1.348c1.48,1.479,3.913,1.467,5.406-0.026l18.324-18.325
		l7.527-7.526c0.599,0.396,1.127,0.479,1.761,0.526c0.136-0.001,0.271-0.003,0.474,0.065c0.54,0.133,0.945,0.13,1.35,0.127
		c0.811-0.002,1.082-0.005,1.754,0.669c-0.339,0.34-0.545,0.813-0.613,1.285c-0.003,0.542,0.197,1.014,0.602,1.417l3.361,3.362
		c1.145,1.144,2.9,1.136,4.055-0.019l6.787-6.787C85.671,49.68,85.68,47.924,84.536,46.78z M56.795,55.689l-4.035-4.035l6.789-6.786
		l4.033,4.035L56.795,55.689z M37.792,74.694c-0.747,0.747-1.964,0.752-2.704,0.012l-1.344-1.345c-0.74-0.74-0.735-1.956,0.013-2.702
		l0.677-0.679l1.346,1.346c0.338,0.336,0.945,0.401,1.352-0.008c0.407-0.406,0.41-0.947,0.006-1.35l-1.346-1.346l1.359-1.358
		l1.346,1.346c0.336,0.337,0.942,0.401,1.35-0.007c0.408-0.406,0.41-0.946,0.008-1.351l-1.346-1.346l12.895-12.896l4.035,4.035
		L37.792,74.694L37.792,74.694z M76.386,56.276c-0.407,0.407-0.948,0.41-1.353,0.006l-3.361-3.361c0.34-0.341,0.543-0.814,0.41-1.22
		c0.07-0.607-0.131-1.08-0.534-1.482c-1.143-1.144-1.817-1.276-2.898-1.271c-0.27,0.002-0.676,0.003-1.147-0.062
		c-0.135,0.002-0.339-0.065-0.475-0.065c-0.742-0.063-0.943-0.13-1.414-0.602l-4.775-4.775c2.039-2.576,1.92-6.224-0.367-8.511
		c-3.026-3.024-5.318-3.962-7.885-4.22c5.344-1.713,9.466-1.666,13.377,0.074c2.225,1.004,2.964,1.743,4.982,3.76l3.497,3.499
		c0.739,0.738,1.208,1.751,1.339,2.694c0.064,0.474,0.062,0.879,0.062,1.148c0.062,1.013,0.127,1.757,1.27,2.899
		c0.336,0.336,0.876,0.604,1.349,0.534c0.54-0.002,1.015-0.206,1.354-0.546l3.362,3.362c0.403,0.403,0.401,0.944-0.007,1.352
		L76.386,56.276z"/>
</svg>
