<svg version="1.1" id="Layer_1" xmlns="http://www.w3.org/2000/svg" xmlns:xlink="http://www.w3.org/1999/xlink" x="0px" y="0px"
	 width="30px" height="30px" viewBox="0 0 30 30" enable-background="new 0 0 30 30" xml:space="preserve">
	<circle fill="#FFFFFF" cx="6.287" cy="23.606" r="0.904"/>
	<path fill="#FFFFFF" d="M26.162,7.39l-0.399-0.932l-3.961,3.959H19.55l0.002-2.25l3.935-3.942l-0.965-0.387
		c-0.787-0.315-1.615-0.476-2.46-0.476c-3.659,0-6.637,2.976-6.637,6.634c0,0.685,0.106,1.361,0.316,2.014l-9.566,9.563
		c-0.561,0.56-0.869,1.305-0.869,2.099c0,0.793,0.309,1.537,0.869,2.097c0.559,0.561,1.303,0.869,2.097,0.869
		c0.793,0,1.538-0.309,2.099-0.869l9.508-9.508c0.701,0.245,1.435,0.37,2.184,0.37c3.657,0,6.633-2.977,6.633-6.635
		C26.694,9.096,26.516,8.219,26.162,7.39z M20.062,15.258c-0.721,0-1.42-0.145-2.079-0.429l-0.428-0.186L7.398,24.798
		c-0.573,0.572-1.683,0.571-2.254,0c-0.301-0.299-0.466-0.699-0.466-1.126s0.165-0.827,0.467-1.127l10.192-10.191l-0.167-0.419
		c-0.247-0.626-0.373-1.278-0.373-1.938c0-2.901,2.36-5.261,5.263-5.261c0.303,0,0.604,0.025,0.899,0.077l-2.781,2.786l-0.003,4.191
		h4.194l2.847-2.845c0.069,0.343,0.104,0.695,0.104,1.051C25.321,12.897,22.962,15.258,20.062,15.258z"/>
</svg>
