
<svg version="1.1" id="Layer_1" xmlns="http://www.w3.org/2000/svg" xmlns:xlink="http://www.w3.org/1999/xlink" x="0px" y="0px"
	 width="120px" height="120px" viewBox="0 0 120 120" enable-background="new 0 0 120 120" xml:space="preserve" preserveAspectRatio="xMidYMid meet">
	<circle class="bg-circle" fill="#F3F4F5" cx="60" cy="60" r="60"/>
	<path class="bg-hig" fill="#A9E6F5" d="M79.695,30.677h-2.256v-1.156c0-0.563-0.461-1.021-1.027-1.021s-1.025,0.457-1.025,1.021v1.156
	h-4.512v-1.156c0-0.563-0.461-1.021-1.027-1.021s-1.025,0.457-1.025,1.021v1.156h-4.514v-1.156c0-0.563-0.459-1.021-1.027-1.021
	c-0.564,0-1.023,0.457-1.023,1.021v1.156h-4.514v-1.156c0-0.563-0.46-1.021-1.025-1.021c-0.568,0-1.026,0.457-1.026,1.021v1.156
	h-4.513v-1.156c0-0.563-0.46-1.021-1.027-1.021c-0.564,0-1.025,0.457-1.025,1.021v1.156h-4.514v-1.156
	c0-0.563-0.459-1.021-1.025-1.021s-1.025,0.457-1.025,1.021v1.156h-2.256c-1.772,0-3.215,1.435-3.215,3.198v54.427
	c0,1.764,1.443,3.198,3.215,3.198h39.389c1.771,0,3.215-1.435,3.215-3.198V33.875C82.91,32.111,81.467,30.677,79.695,30.677z"/>
	<path class="bg-line" fill="#003A49" d="M79.695,30.677h-2.256v-1.156c0-0.563-0.461-1.021-1.027-1.021s-1.025,0.457-1.025,1.021
	v1.156h-4.512v-1.156c0-0.563-0.461-1.021-1.027-1.021s-1.025,0.457-1.025,1.021v1.156h-4.514v-1.156
	c0-0.563-0.459-1.021-1.027-1.021c-0.564,0-1.023,0.457-1.023,1.021v1.156h-4.514v-1.156c0-0.563-0.46-1.021-1.025-1.021
	c-0.568,0-1.026,0.457-1.026,1.021v1.156h-4.513v-1.156c0-0.563-0.46-1.021-1.027-1.021c-0.564,0-1.025,0.457-1.025,1.021v1.156
	h-4.514v-1.156c0-0.563-0.459-1.021-1.025-1.021s-1.025,0.457-1.025,1.021v1.156h-2.256c-1.772,0-3.215,1.435-3.215,3.198v54.427
	c0,1.764,1.443,3.198,3.215,3.198h39.389c1.771,0,3.215-1.435,3.215-3.198V33.875C82.91,32.111,81.467,30.677,79.695,30.677z
	 M80.857,88.302c0,0.638-0.521,1.157-1.162,1.157H40.306c-0.642,0-1.162-0.52-1.162-1.157V33.875c0-0.638,0.521-1.157,1.162-1.157
	h2.256v1.157c0,0.562,0.459,1.021,1.025,1.021s1.025-0.458,1.025-1.021v-1.157h4.514v1.157c0,0.562,0.461,1.021,1.025,1.021
	c0.567,0,1.027-0.458,1.027-1.021v-1.157h4.513v1.157c0,0.562,0.458,1.021,1.026,1.021c0.565,0,1.025-0.458,1.025-1.021v-1.157
	h4.514v1.157c0,0.562,0.459,1.021,1.023,1.021c0.568,0,1.027-0.458,1.027-1.021v-1.157h4.514v1.157c0,0.562,0.459,1.021,1.025,1.021
	s1.027-0.458,1.027-1.021v-1.157h4.512v1.157c0,0.562,0.459,1.021,1.025,1.021s1.027-0.458,1.027-1.021v-1.157h2.256
	c0.641,0,1.162,0.52,1.162,1.157V88.302z"/>
	<path class="bg-line" fill="#003A49" d="M56.718,44.692c-0.568,0-1.026-0.457-1.026-1.021c0-0.562,0.458-1.021,1.026-1.021
	h15.319c0.564,0,1.025,0.458,1.025,1.021c0,0.564-0.461,1.021-1.025,1.021H56.718z M76.412,47.006c0.566,0,1.027,0.456,1.027,1.02
	s-0.461,1.021-1.027,1.021H56.718c-0.568,0-1.026-0.457-1.026-1.021s0.458-1.02,1.026-1.02H76.412z M51.616,41.862
	c0.4-0.399,1.05-0.399,1.45,0c0.4,0.398,0.4,1.045,0,1.442l-5.471,5.443c-0.199,0.198-0.463,0.298-0.727,0.298
	c-0.262,0-0.523-0.1-0.725-0.298l-3.281-3.267c-0.4-0.398-0.4-1.044,0-1.443c0.4-0.398,1.049-0.398,1.45,0l2.556,2.545
	L51.616,41.862z M56.718,55.578c-0.568,0-1.026-0.458-1.026-1.021c0-0.563,0.458-1.021,1.026-1.021h15.319
	c0.564,0,1.025,0.458,1.025,1.021c0,0.562-0.461,1.021-1.025,1.021H56.718z M76.412,57.892c0.566,0,1.027,0.456,1.027,1.02
	c0,0.564-0.461,1.021-1.027,1.021H56.718c-0.568,0-1.026-0.456-1.026-1.021c0-0.563,0.458-1.02,1.026-1.02H76.412z M51.616,52.747
	c0.4-0.398,1.05-0.398,1.45,0s0.4,1.044,0,1.443l-5.471,5.443c-0.199,0.198-0.463,0.298-0.727,0.298c-0.262,0-0.523-0.1-0.725-0.298
	l-3.281-3.267c-0.4-0.399-0.4-1.044,0-1.443c0.4-0.398,1.049-0.398,1.45,0l2.556,2.545L51.616,52.747z M56.718,66.464
	c-0.568,0-1.026-0.458-1.026-1.021c0-0.562,0.458-1.021,1.026-1.021h15.319c0.564,0,1.025,0.458,1.025,1.021
	c0,0.563-0.461,1.021-1.025,1.021H56.718z M76.412,68.775c0.566,0,1.027,0.458,1.027,1.021s-0.461,1.021-1.027,1.021H56.718
	c-0.568,0-1.026-0.457-1.026-1.021s0.458-1.021,1.026-1.021H76.412z M51.616,63.633c0.4-0.398,1.05-0.398,1.45,0
	c0.4,0.399,0.4,1.044,0,1.443l-5.471,5.443c-0.199,0.198-0.463,0.298-0.727,0.298c-0.262,0-0.523-0.1-0.725-0.298l-3.281-3.267
	c-0.4-0.399-0.4-1.044,0-1.443c0.4-0.398,1.049-0.398,1.45,0l2.556,2.545L51.616,63.633z M56.718,77.35
	c-0.568,0-1.026-0.458-1.026-1.021s0.458-1.021,1.026-1.021h15.319c0.564,0,1.025,0.457,1.025,1.021s-0.461,1.021-1.025,1.021
	H56.718z M76.412,79.661c0.566,0,1.027,0.458,1.027,1.021s-0.461,1.021-1.027,1.021H56.718c-0.568,0-1.026-0.457-1.026-1.021
	s0.458-1.021,1.026-1.021H76.412z M51.616,74.519c0.4-0.399,1.05-0.399,1.45,0c0.4,0.398,0.4,1.044,0,1.443l-5.471,5.443
	c-0.199,0.198-0.463,0.298-0.727,0.298c-0.262,0-0.523-0.1-0.725-0.298l-3.281-3.268c-0.4-0.398-0.4-1.045,0-1.442
	c0.4-0.398,1.049-0.398,1.45,0l2.556,2.545L51.616,74.519z"/>
</svg>
