<svg version="1.1" id="Layer_1" xmlns="http://www.w3.org/2000/svg" xmlns:xlink="http://www.w3.org/1999/xlink" x="0px" y="0px"
	 width="120px" height="120px" viewBox="0 0 120 120" enable-background="new 0 0 120 120" xml:space="preserve" preserveAspectRatio="xMidYMid meet">
	<circle class="bg-circle" fill="#F3F4F5" cx="60" cy="60" r="60"/>

		<path class="bg-line" fill="#003A49" d="M77.102,29.517H42.899c-3.149,0-5.712,2.587-5.712,5.768v49.43c0,3.182,2.562,5.768,5.712,5.768h34.203
			c3.148,0,5.711-2.586,5.711-5.768v-49.43C82.812,32.104,80.25,29.517,77.102,29.517z M80.332,84.715
			c0,1.801-1.449,3.266-3.23,3.266H42.899c-1.782,0-3.231-1.465-3.231-3.266v-49.43c0-1.801,1.449-3.266,3.231-3.266h34.203
			c1.781,0,3.23,1.465,3.23,3.266V84.715z"/>
		<path class="bg-line" fill="#003A49" d="M43.708,50.601h32.581c0.682,0,1.24-0.561,1.242-1.251V36.105c0-0.689-0.557-1.25-1.24-1.25H43.708
			c-0.684,0-1.24,0.561-1.24,1.25V49.35C42.468,50.04,43.025,50.601,43.708,50.601z M44.95,37.355h30.099v10.743H44.95V37.355z"/>
		<path class="bg-line" fill="#003A49" d="M45.475,54.427c-1.914,0-3.471,1.571-3.471,3.503v1.283c0,1.933,1.557,3.507,3.471,3.507h1.271
				c1.913,0,3.469-1.574,3.469-3.507V57.93c0-1.932-1.556-3.503-3.469-3.503H45.475z M46.747,60.468h-1.271
				c-0.684,0-1.239-0.562-1.239-1.255V57.93c0-0.69,0.556-1.253,1.239-1.253h1.271c0.683,0,1.238,0.562,1.238,1.253v1.283
				C47.985,59.906,47.429,60.468,46.747,60.468z"/>
		<path class="bg-line" fill="#003A49" d="M54.735,54.427c-1.914,0-3.471,1.571-3.471,3.503v1.283c0,1.933,1.557,3.507,3.471,3.507h1.271
				c1.913,0,3.47-1.574,3.47-3.507V57.93c0-1.932-1.557-3.503-3.47-3.503H54.735z M56.004,60.468h-1.271
				c-0.683,0-1.238-0.562-1.238-1.255V57.93c0-0.69,0.556-1.253,1.238-1.253h1.271c0.684,0,1.24,0.562,1.24,1.253v1.283
				C57.245,59.906,56.688,60.468,56.004,60.468z"/>
		<path class="bg-line" fill="#003A49" d="M63.994,54.427c-1.912,0-3.469,1.571-3.469,3.503v1.283c0,1.933,1.557,3.507,3.469,3.507h1.271
				c1.914,0,3.471-1.574,3.471-3.507V57.93c0-1.932-1.557-3.503-3.471-3.503H63.994z M65.266,60.468h-1.271
				c-0.684,0-1.238-0.562-1.238-1.255V57.93c0-0.69,0.555-1.253,1.238-1.253h1.271c0.684,0,1.238,0.562,1.238,1.253v1.283
				C66.504,59.906,65.949,60.468,65.266,60.468z"/>
		<path class="bg-line" fill="#003A49" d="M73.254,54.427c-1.914,0-3.469,1.571-3.469,3.503v1.283c0,1.933,1.555,3.507,3.469,3.507h1.271
				c1.914,0,3.471-1.574,3.471-3.507V57.93c0-1.932-1.557-3.503-3.471-3.503H73.254z M74.525,60.468h-1.271
				c-0.684,0-1.238-0.562-1.238-1.255V57.93c0-0.69,0.555-1.253,1.238-1.253h1.271c0.684,0,1.238,0.562,1.238,1.253v1.283
				C75.764,59.906,75.209,60.468,74.525,60.468z"/>
		<path class="bg-line" fill="#003A49" d="M45.475,64.496c-1.914,0-3.471,1.574-3.471,3.508v1.283c0,1.932,1.557,3.504,3.471,3.504h1.271
				c1.913,0,3.469-1.572,3.469-3.504v-1.283c0-1.934-1.556-3.508-3.469-3.508H45.475z M46.747,70.541h-1.271
				c-0.684,0-1.239-0.562-1.239-1.254v-1.283c0-0.691,0.556-1.254,1.239-1.254h1.271c0.683,0,1.238,0.562,1.238,1.254v1.283
				C47.985,69.979,47.429,70.541,46.747,70.541z"/>
		<path class="bg-line" fill="#003A49" d="M54.735,64.496c-1.914,0-3.471,1.574-3.471,3.508v1.283c0,1.932,1.557,3.504,3.471,3.504h1.271
				c1.913,0,3.47-1.572,3.47-3.504v-1.283c0-1.934-1.557-3.508-3.47-3.508H54.735z M56.004,70.541h-1.271
				c-0.683,0-1.238-0.562-1.238-1.254v-1.283c0-0.691,0.556-1.254,1.238-1.254h1.271c0.684,0,1.24,0.562,1.24,1.254v1.283
				C57.245,69.979,56.688,70.541,56.004,70.541z"/>
		<path class="bg-line" fill="#003A49" d="M63.994,64.496c-1.912,0-3.469,1.574-3.469,3.508v1.283c0,1.932,1.557,3.504,3.469,3.504h1.271
				c1.914,0,3.471-1.572,3.471-3.504v-1.283c0-1.934-1.557-3.508-3.471-3.508H63.994z M65.266,70.541h-1.271
				c-0.684,0-1.238-0.562-1.238-1.254v-1.283c0-0.691,0.555-1.254,1.238-1.254h1.271c0.684,0,1.238,0.562,1.238,1.254v1.283
				C66.504,69.979,65.949,70.541,65.266,70.541z"/>
		<path class="bg-line" fill="#003A49" d="M45.475,74.57c-1.914,0-3.471,1.572-3.471,3.504v1.285c0,1.932,1.557,3.504,3.471,3.504h1.271
				c1.913,0,3.469-1.572,3.469-3.504v-1.285c0-1.932-1.556-3.504-3.469-3.504H45.475z M46.747,80.611h-1.271
				c-0.684,0-1.239-0.562-1.239-1.252v-1.285c0-0.691,0.556-1.254,1.239-1.254h1.271c0.683,0,1.238,0.562,1.238,1.254v1.285
				C47.985,80.049,47.429,80.611,46.747,80.611z"/>
		<path class="bg-line" fill="#003A49" d="M54.735,74.57c-1.914,0-3.471,1.572-3.471,3.504v1.285c0,1.932,1.557,3.504,3.471,3.504h1.271
				c1.913,0,3.47-1.572,3.47-3.504v-1.285c0-1.932-1.557-3.504-3.47-3.504H54.735z M56.004,80.611h-1.271
				c-0.683,0-1.238-0.562-1.238-1.252v-1.285c0-0.691,0.556-1.254,1.238-1.254h1.271c0.684,0,1.24,0.562,1.24,1.254v1.285
				C57.245,80.049,56.688,80.611,56.004,80.611z"/>
		<path class="bg-line" fill="#003A49" d="M63.994,74.57c-1.912,0-3.469,1.572-3.469,3.504v1.285c0,1.932,1.557,3.504,3.469,3.504h1.271
				c1.914,0,3.471-1.572,3.471-3.504v-1.285c0-1.932-1.557-3.504-3.471-3.504H63.994z M65.266,80.611h-1.271
				c-0.684,0-1.238-0.562-1.238-1.252v-1.285c0-0.691,0.555-1.254,1.238-1.254h1.271c0.684,0,1.238,0.562,1.238,1.254v1.285
				C66.504,80.049,65.949,80.611,65.266,80.611z"/>
		
		<path class="bg-line" fill="#003A49" d="M74.525,64.371h-1.271c-1.982,0-3.594,1.629-3.594,3.631v11.357c0,2.002,1.611,3.629,3.594,3.629h1.271
			c1.982,0,3.596-1.627,3.596-3.629V68.002C78.121,66,76.508,64.371,74.525,64.371z M75.639,79.359c0,0.621-0.5,1.127-1.113,1.127
			h-1.271c-0.615,0-1.113-0.506-1.113-1.127V68.004c0-0.623,0.498-1.129,1.113-1.129h1.271c0.613,0,1.113,0.506,1.113,1.129V79.359z
			"/>

		<path class="bg-hig" fill="#A9E6F5" d="M75.889,79.359c0,0.76-0.611,1.377-1.363,1.377h-1.271
		c-0.752,0-1.363-0.617-1.363-1.377V68.004c0-0.762,0.611-1.379,1.363-1.379h1.271c0.752,0,1.363,0.617,1.363,1.379V79.359
		L75.889,79.359z M75.301,48.348H44.7V37.105h30.599v11.243H75.301z"/>
</svg>
