<svg version="1.1" id="Layer_1" xmlns="http://www.w3.org/2000/svg" xmlns:xlink="http://www.w3.org/1999/xlink" x="0px" y="0px"
	 width="30px" height="30px" viewBox="0 0 30 30" enable-background="new 0 0 30 30" xml:space="preserve">
	<path id="Shape_3_" fill="#FFFFFF" d="M15,3.507C8.646,3.507,3.507,8.646,3.507,15S8.646,26.493,15,26.493
		S26.493,21.354,26.493,15S21.354,3.507,15,3.507z M15,25.141C9.456,25.141,4.858,20.544,4.858,15S9.456,4.858,15,4.858
		S25.141,9.456,25.141,15S20.544,25.141,15,25.141z"/>
	<path id="Shape_2_" fill="#FFFFFF" d="M20.005,17.14c-0.404-0.271-0.811-0.135-0.945,0.271c-0.677,1.622-2.164,2.569-3.651,2.569
		c-1.478,0-2.781-0.846-3.527-2.164h3.122c0.405,0,0.676-0.27,0.676-0.676s-0.271-0.676-0.676-0.676h-3.637
		c-0.088-0.389-0.149-0.79-0.149-1.217c0-0.377,0.044-0.736,0.114-1.082h3.672c0.405,0,0.676-0.271,0.676-0.676
		c0-0.406-0.271-0.676-0.676-0.676h-3.188c0.732-1.394,2.066-2.299,3.593-2.299c1.487,0,2.975,0.946,3.651,2.568
		c0.27,0.271,0.54,0.406,0.945,0.271c0.271-0.271,0.406-0.54,0.271-0.946c-0.947-2.164-2.84-3.381-4.868-3.381
		c-2.359,0-4.323,1.56-5.137,3.786H8.782c-0.404,0-0.676,0.271-0.676,0.677c0,0.405,0.271,0.676,0.676,0.676H9.95
		c-0.043,0.311-0.086,0.622-0.086,0.946c0,0.467,0.059,0.917,0.152,1.353H8.782c-0.404,0-0.676,0.27-0.676,0.676
		s0.271,0.676,0.676,0.676h1.695c0.928,2.003,2.817,3.381,4.93,3.381c2.027,0,3.921-1.217,4.867-3.11
		C20.546,17.681,20.411,17.274,20.005,17.14L20.005,17.14z"/>
</svg>
