<svg version="1.1" id="Layer_1" xmlns="http://www.w3.org/2000/svg" xmlns:xlink="http://www.w3.org/1999/xlink" x="0px" y="0px"
	 width="30px" height="30px" viewBox="0 0 30 30" enable-background="new 0 0 30 30" xml:space="preserve">
	<path id="Shape_7_" fill="#FFFFFF" d="M24.779,5.33H5.219c-0.416,0-0.742,0.323-0.742,0.735v9.257v3.778
				c0,0.412,0.326,0.733,0.742,0.733h9.038v3.367H10.11c-0.417,0-0.742,0.322-0.742,0.733c0,0.412,0.325,0.735,0.742,0.735h9.781
				c0.416,0,0.742-0.323,0.742-0.735c0-0.411-0.326-0.733-0.742-0.733h-4.148v-3.367h9.037c0.416,0,0.744-0.321,0.744-0.733v-3.778
				V6.065C25.523,5.653,25.195,5.33,24.779,5.33L24.779,5.33z M24.037,18.366H5.961v-1.883h18.076V18.366z M24.037,15H5.961V6.799
				h18.076V15z"/>
</svg>
