<?xml version="1.0" encoding="utf-8"?>
<!-- Generator: Adobe Illustrator 17.1.0, SVG Export Plug-In . SVG Version: 6.00 Build 0)  -->
<!DOCTYPE svg PUBLIC "-//W3C//DTD SVG 1.1//EN" "http://www.w3.org/Graphics/SVG/1.1/DTD/svg11.dtd">
<svg version="1.1" id="Capa_1" xmlns="http://www.w3.org/2000/svg" xmlns:xlink="http://www.w3.org/1999/xlink" x="0px" y="0px"
	 viewBox="0 0 595.3 841.9" enable-background="new 0 0 595.3 841.9" xml:space="preserve">
<path d="M550.8,510.4h-41.6c36.4-46.7,56.1-103.8,56.1-164c0-147.7-120.2-267.9-267.9-267.9S29.6,198.7,29.6,346.4
	s120.2,267.9,267.9,267.9c8.2,0,14.9-6.7,14.9-14.9c0-8.2-6.7-14.9-14.9-14.9c-131.3,0-238.1-106.8-238.1-238.1
	s106.8-238.1,238.1-238.1s238.1,106.8,238.1,238.1c0,54.6-18.3,106.4-52,148.4l-12.1-45.3c-2.1-7.9-10.3-12.6-18.2-10.5
	c-7.9,2.1-12.6,10.3-10.5,18.2l19.3,71.9c1.7,6.4,7.8,11,14.4,11h74.4c8.2,0,14.9-6.7,14.9-14.9C565.7,517.1,559,510.4,550.8,510.4z
	"/>
<path d="M451.9,254.6c-5.6-3.2-12.6-3.2-18.2,0.1l-31.1,18l-15.7-9.1l-0.1-18.2l31.1-18c5.6-3.2,9.1-9.3,9.2-15.8
	c0.1-6.5-3.4-12.6-8.9-15.9c-28.2-17-63.2-17.2-91.5-0.6c-30.6,18-47.5,53.5-43.1,88.6L149.8,417.6c-10.3,10.3-15.9,23.9-15.9,38.4
	c0,14.5,5.6,28.1,15.9,38.4c10.3,10.3,23.9,15.9,38.4,15.9c14.5,0,28.1-5.6,38.4-15.9l133.7-133.7c19.5,2.6,39.2-1.3,56.4-11.2
	c28.1-16.2,45.2-46.6,44.6-79.1C461.1,263.8,457.6,257.8,451.9,254.6z M401.8,323.7c-13.1,7.6-28.4,9.8-43.2,6.4l-8-1.9L205.5,473.3
	c-4.6,4.6-10.8,7.2-17.3,7.2c-6.5,0-12.7-2.5-17.3-7.2c-4.6-4.6-7.2-10.8-7.2-17.3s2.5-12.7,7.2-17.3L316,293.5l-1.8-8
	c-5.7-25.2,5.7-51.8,27.7-64.7c9.3-5.5,19.7-8.2,30.1-8.2c3.5,0,7,0.3,10.5,0.9L357,228.3l0.2,52.4l45.3,26.4l25.5-14.7
	C423.3,305.4,414.1,316.6,401.8,323.7z"/>
</svg>
