<?xml version="1.0" encoding="utf-8"?>
<!-- Generator: Adobe Illustrator 17.1.0, SVG Export Plug-In . SVG Version: 6.00 Build 0)  -->
<!DOCTYPE svg PUBLIC "-//W3C//DTD SVG 1.1//EN" "http://www.w3.org/Graphics/SVG/1.1/DTD/svg11.dtd">
<svg version="1.1" id="Capa_1" xmlns="http://www.w3.org/2000/svg" xmlns:xlink="http://www.w3.org/1999/xlink" x="0px" y="0px"
	 viewBox="0 0 595.3 841.9" enable-background="new 0 0 595.3 841.9" xml:space="preserve">
<g>
	<g>
		<path d="M587.8,124.3L414.1,49.9c-5.1-2.2-11.1-0.7-14.6,3.6l-49.6,62c-2.4,2.9-3.2,6.7-2.4,10.4c0.8,3.5,3.1,6.4,6.2,8.1
			l-155.8,58.4c-13.1,4.9-24.3,14.2-31.4,26.2L115,304.5c-11,18.3-11.8,40.6-2.3,59.6l3.6,7.2H62c-6.8,0-12.4,5.6-12.4,12.4v235.6
			H12.4c-6.8,0-12.4,5.6-12.4,12.4s5.6,12.4,12.4,12.4h421.7c6.8,0,12.4-5.6,12.4-12.4s-5.6-12.4-12.4-12.4h-37.2V445.7
			c0-0.9-0.3-1.8-0.5-2.6c23.3-15.8,49.9-40.1,73-77.6c39.4-63.7,61.6-115.1,70.7-138.2l1.4,0.7c5.3,2.7,11,4,16.7,4
			c6.8,0,13.5-1.9,19.5-5.6c11.1-6.8,17.7-18.7,17.7-31.6v-59.1C595.3,130.7,592.3,126.3,587.8,124.3z M372.1,619.4H74.4V396.1h62.2
			c0.3,0,0.6,0,0.9,0h98.3c-11.2,6.8-24.9,15.4-42.3,26.4c-13.2,8.4-22.3,21.5-25.5,36.8c-3.2,15.3-0.2,31,8.5,44.1
			c11.1,16.7,29.4,25.8,48.1,25.8c10.1,0,20.4-2.7,29.7-8.2l85.2-51.1c4.9-1.2,16.9-4.6,32.5-12.5L372.1,619.4L372.1,619.4z
			 M207.4,340c19-8.1,44.3-22.9,57.2-37.9c9.9,5.8,25.5,13.3,44.9,17.1c-13.8,17.1-27.7,38-33.6,52.7c-1-0.3-2-0.6-3.1-0.6h-50.9
			C219.3,359,213.2,348.1,207.4,340z M448.3,352.5c-48.9,79.1-115.2,93.4-115.9,93.6c-1.4,0.3-2.8,0.8-4,1.5l-86.9,52.1
			c-15.1,9.1-34.6,4.7-44.4-10c-5-7.5-6.7-16.4-4.8-25.2c1.9-8.7,7-16.2,14.6-21c66.6-42.4,78.7-47.1,78.4-47.4
			c6.9,0,12.4-5,12.4-11.8c1.3-7.8,23.9-44.1,46-66.2c3.5-3.5,4.6-8.9,2.7-13.5c-1.9-4.6-6.4-7.7-11.5-7.7
			c-38.6,0-66.4-21.9-66.6-22.1c-3.7-3-8.7-4.3-13-2.3c-4.3,2.1-6.9,5.6-6.9,10.4c-4.4,10.6-52,37.6-62.3,38.7
			c-5.1,0-9.6,3.1-11.5,7.9c-1.9,4.8-0.6,10.2,3.1,13.6c0.1,0.1,13.1,12.5,18.5,28.1h-52l-9.2-18.4c-5.7-11.4-5.2-24.8,1.4-35.8
			l51.5-85.8c4.3-7.2,11-12.7,18.9-15.7l177.1-66.4l134,67C509.6,237.2,487.7,288.8,448.3,352.5z M570.5,194.8
			c0,6.3-4.1,9.5-5.9,10.5c-1.8,1.1-6.5,3.3-12.1,0.5l-173.6-86.8L413,76.5l157.4,67.5V194.8z"/>
	</g>
</g>
</svg>
