<svg version="1.1" id="icon-certificate" xmlns="http://www.w3.org/2000/svg" xmlns:xlink="http://www.w3.org/1999/xlink" x="0px" y="0px"
	 width="120px" height="120px" viewBox="0 0 120 120" enable-background="new 0 0 120 120" xml:space="preserve" preserveAspectRatio="xMidYMid meet">
<circle class="bg-circle" fill="#F3F4F5" cx="60" cy="60" r="60"/>
	<path class="bg-line" fill="#003A49" d="M34.852,23.47c-0.697,0-1.264,0.566-1.264,1.263v70.535c0,0.696,0.566,1.263,1.264,1.263h38.245
		c0.337,0,0.654-0.132,0.894-0.37l12.052-12.053c0.235-0.234,0.37-0.561,0.37-0.893V24.732c0-0.696-0.566-1.263-1.264-1.263
		H34.852z M71.833,94.004H36.114V25.996h47.771v55.955l-10.798-0.01c-0.333,0-0.658,0.135-0.895,0.369
		c-0.238,0.24-0.37,0.559-0.37,0.895L71.833,94.004z M74.359,92.218l-0.008-7.749l7.75,0.006L74.359,92.218z"/>
		
	<path class="bg-hig" fill="#A9E6F5" d="M36.114,25.996v68.008h35.719l-0.01-10.799c0-0.336,0.132-0.654,0.37-0.895
		c0.236-0.234,0.562-0.369,0.895-0.369l10.798,0.01V25.996H36.114z M48.382,89.213c-3.569,0-6.474-2.904-6.474-6.474
		s2.904-6.474,6.474-6.474s6.473,2.904,6.473,6.474S51.951,89.213,48.382,89.213z"/>

	<path  class="bg-line" fill="#003A49" d="M48.382,76.266c-3.569,0-6.474,2.904-6.474,6.474s2.904,6.474,6.474,6.474s6.473-2.904,6.473-6.474
		S51.951,76.266,48.382,76.266z M48.382,86.688c-2.177,0-3.947-1.771-3.947-3.948s1.771-3.946,3.947-3.946s3.947,1.77,3.947,3.946
		S50.559,86.688,48.382,86.688z"/>

	<path class="bg-line" fill="#003A49" d="M59.414,81.711c-0.696,0-1.263,0.566-1.263,1.264c0,0.696,0.566,1.263,1.263,1.263h8.05
		c0.696,0,1.263-0.566,1.263-1.263c0-0.697-0.566-1.264-1.263-1.264H59.414z"/>

	<path class="bg-line" fill="#003A49" d="M43.609,32.25c-0.696,0-1.263,0.566-1.263,1.263c0,0.697,0.566,1.264,1.263,1.264h4.245
		c0.697,0,1.264-0.566,1.264-1.264c0-0.696-0.566-1.263-1.264-1.263H43.609z"/>

	<path class="bg-line" fill="#003A49" d="M64.244,32.25c-0.697,0-1.264,0.566-1.264,1.263c0,0.697,0.566,1.264,1.264,1.264h12.731
		c0.697,0,1.264-0.566,1.264-1.264c0-0.696-0.566-1.263-1.264-1.263H64.244z"/>

	<path class="bg-line" fill="#003A49" d="M55.317,38.542c-0.697,0-1.264,0.566-1.264,1.263c0,0.697,0.566,1.264,1.264,1.264h21.658
		c0.697,0,1.264-0.566,1.264-1.264c0-0.696-0.566-1.263-1.264-1.263H55.317z"/>

	<path class="bg-line" fill="#003A49" d="M42.951,50.103c-0.696,0-1.263,0.566-1.263,1.263c0,0.697,0.566,1.264,1.263,1.264h34.098
		c0.696,0,1.263-0.566,1.263-1.264c0-0.696-0.566-1.263-1.263-1.263H42.951z"/>
	
	<path class="bg-line" fill="#003A49" d="M42.951,55.078c-0.696,0-1.263,0.566-1.263,1.263c0,0.697,0.566,1.264,1.263,1.264h34.098
		c0.696,0,1.263-0.566,1.263-1.264c0-0.696-0.566-1.263-1.263-1.263H42.951z"/>

	<path class="bg-line" fill="#003A49" d="M42.951,60.492c-0.696,0-1.263,0.566-1.263,1.264c0,0.696,0.566,1.264,1.263,1.264h34.098
		c0.696,0,1.263-0.567,1.263-1.264c0-0.697-0.566-1.264-1.263-1.264H42.951z"/>

	<path class="bg-line" fill="#003A49" d="M76.244,65.469c-0.697,0-1.264,0.566-1.264,1.262c0,0.697,0.566,1.264,1.264,1.264h0.805
		c0.696,0,1.263-0.566,1.263-1.264c0-0.695-0.566-1.262-1.263-1.262H76.244z"/>
	
	<path class="bg-line" fill="#003A49" d="M42.951,65.469c-0.696,0-1.263,0.566-1.263,1.262c0,0.697,0.566,1.264,1.263,1.264h28.17
		c0.697,0,1.264-0.566,1.264-1.264c0-0.695-0.566-1.262-1.264-1.262H42.951z"/>
	
</svg>
