<svg version="1.1" id="icon-tap" xmlns="http://www.w3.org/2000/svg" xmlns:xlink="http://www.w3.org/1999/xlink" x="0px" y="0px"
	 width="120px" height="120px" viewBox="0 0 120 120" enable-background="new 0 0 120 120" xml:space="preserve" preserveAspectRatio="xMidYMid meet">
	<circle class="bg-circle" fill="#F3F4F5"  cx="60" cy="60" r="60"/>

	<path class="bg-line" fill="#003A49" d="M78.977,49.808h-5.281c-1.164-2.483-2.959-4.606-5.234-6.18c-1.562-1.08-3.289-1.85-5.105-2.293v-2.124
			h6.17c0.738,0,1.336-0.6,1.336-1.338v-4.022c0-0.739-0.598-1.339-1.336-1.339h-6.17v-2.684c0-0.739-0.6-1.338-1.34-1.338H57.19
			c-0.739,0-1.338,0.599-1.338,1.338v2.684h-6.17c-0.739,0-1.338,0.6-1.338,1.339v4.022c0,0.738,0.599,1.338,1.338,1.338h6.17v2.157
			c-1.768,0.449-3.448,1.207-4.972,2.26c-2.276,1.573-4.072,3.696-5.234,6.18h-18.89c-0.739,0-1.338,0.6-1.338,1.338v10.458
			c0,0.738,0.599,1.338,1.338,1.338h18.89c1.162,2.483,2.958,4.606,5.233,6.18c2.591,1.789,5.63,2.735,8.791,2.735
			c3.16,0,6.199-0.946,8.791-2.735c2.275-1.573,4.07-3.696,5.232-6.18h3.764c1.098,0,1.992,0.893,1.992,1.991v6.86
			c0,0.738,0.6,1.338,1.338,1.338h10.457c0.738,0,1.338-0.6,1.338-1.338v-8.38C92.582,55.911,86.479,49.808,78.977,49.808z
			 M58.528,31.166h2.15v1.346h-2.15V31.166z M51.02,36.534v-1.346h17.168v1.346H51.02z M60.678,39.211v1.716
			c-0.334-0.021-0.67-0.035-1.007-0.035c-0.383,0-0.764,0.015-1.143,0.043V39.21L60.678,39.211L60.678,39.211z M82.125,70.455
			v-5.523c0-2.572-2.094-4.666-4.668-4.666h-4.641c-0.549,0-1.041,0.334-1.242,0.843c-1.953,4.903-6.625,8.072-11.904,8.072
			s-9.951-3.169-11.903-8.072c-0.203-0.509-0.695-0.843-1.243-0.843H28.093v-7.782h18.431c0.548,0,1.041-0.334,1.243-0.843
			c1.952-4.903,6.625-8.073,11.903-8.073s9.951,3.17,11.902,8.073c0.203,0.509,0.695,0.843,1.244,0.843h6.16
			c6.027,0,10.93,4.903,10.93,10.93v7.042H82.125L82.125,70.455z"/>
	
	<path class="bg-line" fill="#003A49" d="M86.953,76.871c-0.521-0.512-1.355-0.512-1.875,0c-0.225,0.221-5.496,5.455-5.496,10.206
			c0,3.546,2.887,6.433,6.434,6.433s6.434-2.887,6.434-6.433C92.449,82.326,87.178,77.092,86.953,76.871z M86.016,90.834
			c-2.072,0-3.758-1.686-3.758-3.757c0-2.437,2.219-5.519,3.758-7.289c1.539,1.771,3.756,4.854,3.756,7.289
			C89.771,89.148,88.088,90.834,86.016,90.834z"/>
	
	<path class="bg-line" fill="#003A49" d="M41.637,53.964h-0.536c-0.739,0-1.338,0.599-1.338,1.338s0.599,1.338,1.338,1.338h0.536
			c0.739,0,1.338-0.599,1.338-1.338S42.376,53.964,41.637,53.964z"/>
	
	<path class="bg-line" fill="#003A49" d="M36.542,53.964h-5.497c-0.739,0-1.337,0.599-1.337,1.338s0.599,1.338,1.337,1.338h5.497
			c0.739,0,1.338-0.599,1.338-1.338C37.881,54.562,37.282,53.964,36.542,53.964z"/>
	
	<path class="bg-hig" fill="#A9E6F5" d="M86.016,90.834c-2.072,0-3.758-1.686-3.758-3.757c0-2.437,2.219-5.519,3.758-7.289
			c1.539,1.771,3.756,4.854,3.756,7.289C89.771,89.148,88.088,90.834,86.016,90.834z"/>
	
	<rect x="51.02" y="35.188" class="bg-hig" fill="#A9E6F5" width="17.168" height="1.346"/>
</svg>
