<svg version="1.1" id="icon-tools" xmlns="http://www.w3.org/2000/svg" xmlns:xlink="http://www.w3.org/1999/xlink" x="0px" y="0px"
	 width="120px" height="120px" viewBox="0 0 120 120" enable-background="new 0 0 120 120" xml:space="preserve" preserveAspectRatio="xMidYMid meet">
	<circle class="bg-circle" fill="#F3F4F5"  cx="60" cy="60" r="60"/>
	<path class="bg-hig" fill="#A9E6F5" d="M55.136,62.104l-0.105-0.105L32.884,39.855c-0.841-0.843-1.305-1.961-1.305-3.148
		c-0.001-1.19,0.462-2.308,1.304-3.148c0.839-0.839,1.956-1.302,3.146-1.302h0.005c1.189,0.001,2.304,0.465,3.141,1.307
		l22.252,22.25L55.136,62.104z"/>
	<path class="bg-line" fill="#003A49" d="M71.703,53.949c-0.339,0-0.657,0.133-0.896,0.372l-4.311,4.311c-0.495,0.495-0.495,1.301,0,1.795
		c0.477,0.476,1.311,0.478,1.793,0l3.796-3.798l0.083,0.021c0.977,0.241,2.797,0.646,4.021,0.646c4.014,0,7.777-1.559,10.607-4.389
		c2.832-2.835,4.393-6.602,4.393-10.605c-0.002-5.396-2.93-10.4-7.643-13.06c-0.385-0.218-0.879-0.215-1.262,0.009
		c-0.389,0.227-0.629,0.646-0.629,1.095l0.001,11.36l-0.064,0.045l-5.397,3.735l-0.086-0.06l-5.375-3.724l-0.005-11.36
		c0-0.448-0.241-0.868-0.629-1.095c-0.382-0.225-0.878-0.228-1.264-0.008c-4.712,2.661-7.638,7.668-7.638,13.066
		c0,1.82,0.349,3.631,1.037,5.383l0.035,0.092l-0.562,0.562c-0.24,0.239-0.371,0.559-0.371,0.896c0,0.339,0.131,0.657,0.371,0.896
		c0.479,0.48,1.314,0.48,1.793,0l1.172-1.172c0.375-0.374,0.477-0.949,0.252-1.431c-0.791-1.697-1.191-3.455-1.191-5.227
		c0-3.562,1.534-6.963,4.209-9.333l0.25-0.221l0.005,9.617c0,0.415,0.204,0.804,0.546,1.042l6.729,4.659
		c0.427,0.295,1.018,0.295,1.443,0l6.73-4.658c0.343-0.237,0.547-0.626,0.547-1.042v-9.615l0.25,0.221
		c2.674,2.367,4.209,5.766,4.209,9.325c0,3.327-1.295,6.457-3.649,8.813c-2.351,2.35-5.478,3.645-8.802,3.645
		c-1.17,0-3.398-0.552-4.16-0.764C71.933,53.964,71.817,53.949,71.703,53.949z"/>
 
 
	<path class="bg-line" fill="#003A49" d="M48.562,62.016c-0.338,0-0.657,0.132-0.896,0.372L30.747,79.309c-1.247,1.241-1.935,2.896-1.937,4.658
		c-0.002,1.766,0.684,3.425,1.931,4.673c1.247,1.247,2.904,1.933,4.667,1.933h0.003c1.761,0,3.418-0.686,4.666-1.933l19.673-19.673
		c0.492-0.494,0.492-1.299-0.001-1.794c-0.478-0.479-1.313-0.479-1.793,0.001L38.283,86.848c-0.765,0.766-1.786,1.188-2.873,1.192
		c-1.09-0.004-2.11-0.427-2.875-1.192c-0.768-0.77-1.19-1.792-1.188-2.879c0.001-1.083,0.424-2.102,1.192-2.867l16.921-16.923
		c0.239-0.238,0.371-0.557,0.371-0.896s-0.132-0.657-0.371-0.896C49.22,62.147,48.901,62.016,48.562,62.016z"/>
 
 
	<path class="bg-line" fill="#003A49" d="M35.388,82.248c-0.468,0-0.907,0.184-1.23,0.51c-0.682,0.676-0.685,1.781-0.008,2.466
		c0.002,0.002,0.004,0.004,0.005,0.004c0.34,0.341,0.786,0.51,1.232,0.51c0.448,0,0.896-0.172,1.238-0.512
		c0.678-0.681,0.676-1.789-0.002-2.466C36.294,82.432,35.855,82.248,35.388,82.248C35.388,82.248,35.388,82.248,35.388,82.248z"/>
	<path class="bg-line" fill="#003A49" d="M35.387,85.888c-0.501,0-0.972-0.193-1.327-0.543l-0.01-0.009c-0.743-0.75-0.739-1.951,0.001-2.685
		c0.354-0.356,0.829-0.554,1.336-0.554c0.506,0,0.982,0.197,1.341,0.556c0.738,0.737,0.739,1.938,0.002,2.678
		C36.37,85.69,35.893,85.888,35.387,85.888z M34.22,85.08l0.042,0.042c0.299,0.3,0.699,0.465,1.125,0.465s0.829-0.166,1.133-0.468
		c0.62-0.622,0.619-1.633-0.002-2.253c-0.303-0.302-0.704-0.468-1.129-0.468c-0.427,0-0.827,0.165-1.125,0.465
		C33.653,83.469,33.638,84.452,34.22,85.08z"/>
 
 
	<path class="bg-line" fill="#003A49" d="M57.888,62.941l0.105,0.105l14.725,14.745l1.475,4.067c0.064,0.175,0.163,0.33,0.296,0.464l8.242,8.239
		c0.48,0.48,1.313,0.479,1.794,0l5.363-5.361c0.239-0.24,0.371-0.56,0.371-0.896c0-0.334-0.135-0.661-0.371-0.896l-8.242-8.243
		c-0.131-0.132-0.291-0.234-0.465-0.296l-4.122-1.511L62.263,58.565l2.48-2.48c0.24-0.239,0.372-0.559,0.372-0.896
		c0-0.339-0.132-0.657-0.372-0.896c-0.359-0.36-0.922-0.47-1.391-0.272l-0.092,0.039L40.97,31.771
		c-1.315-1.32-3.067-2.048-4.934-2.049c-1.875,0-3.629,0.725-4.947,2.041c-1.321,1.322-2.048,3.078-2.047,4.944
		c0.001,1.867,0.729,3.621,2.048,4.938l22.292,22.29l-0.039,0.094c-0.201,0.477-0.095,1.022,0.271,1.391
		c0.479,0.478,1.314,0.48,1.794-0.001L57.888,62.941z M83.628,87.873l-0.106-0.105l-7.052-7.07l-1.475-4.067
		c-0.064-0.176-0.166-0.336-0.295-0.462l-15.02-15.021l0.789-0.79l0.105,0.105l14.912,14.912c0.131,0.133,0.287,0.232,0.467,0.298
		l4.12,1.509l7.124,7.123L83.628,87.873z M55.136,62.104l-0.105-0.105L32.884,39.855c-0.841-0.843-1.305-1.961-1.305-3.148
		c-0.001-1.19,0.462-2.308,1.304-3.148c0.839-0.839,1.956-1.302,3.146-1.302h0.005c1.189,0.001,2.304,0.465,3.141,1.307
		l22.252,22.25L55.136,62.104z"/>
 
 
	<path class="bg-line" fill="#003A49" d="M36.021,35.43c-0.339,0-0.657,0.132-0.897,0.372c-0.494,0.494-0.494,1.299,0,1.792l19.563,19.562
		c0.479,0.481,1.317,0.479,1.793,0.001c0.495-0.495,0.495-1.3,0.001-1.794L36.918,35.802C36.679,35.562,36.36,35.43,36.021,35.43z"
		/>
 
</svg>
