<svg version="1.1" id="icon-rain" xmlns="http://www.w3.org/2000/svg" xmlns:xlink="http://www.w3.org/1999/xlink" x="0px" y="0px"
	 width="120px" height="120px" viewBox="0 0 120 120" enable-background="new 0 0 120 120" xml:space="preserve" preserveAspectRatio="xMidYMid meet">
	<circle class="bg-circle" fill="#F3F4F5"  cx="60" cy="60" r="60"/> 
	<path class="bg-line" fill="#003A49" d="M50.016,22.122c-9.645,0-17.491,7.846-17.491,17.49c0,0.318,0.01,0.64,0.026,0.959l0.01,0.186
		l-0.175,0.062c-4.054,1.448-6.778,5.315-6.778,9.623c0,3.334,1.635,6.466,4.373,8.38c0.838,0.585,1.829,0.895,2.864,0.895h56.528
		c2.752,0,5.005-2.207,5.022-4.92c0.001-3.546-2.474-6.595-5.884-7.31l-0.174-0.037l-0.023-0.176
		c-0.371-2.903-1.676-5.528-3.771-7.593c-2.449-2.413-5.692-3.741-9.131-3.741c-2.733,0-5.35,0.839-7.567,2.426l-0.358,0.258
		l-0.036-0.44C66.716,29.177,59.059,22.122,50.016,22.122z M89.371,56.853H32.843c-0.446,0-0.87-0.13-1.224-0.377
		c-1.972-1.379-3.149-3.635-3.149-6.033c0-3.501,2.489-6.534,5.918-7.213c0.744-0.147,1.244-0.852,1.14-1.602
		c-0.092-0.656-0.139-1.335-0.139-2.016c0-8.065,6.562-14.627,14.627-14.627c8.064,0,14.626,6.562,14.626,14.627
		c0,0.878-0.077,1.751-0.229,2.595c-0.119,0.661,0.246,1.325,0.869,1.579c0.613,0.248,1.354,0.023,1.725-0.523
		c1.894-2.792,5.035-4.459,8.404-4.459c5.506,0,10.057,4.477,10.144,9.98c0.013,0.777,0.655,1.41,1.433,1.41
		c2.506,0,4.544,2.037,4.544,4.542C91.523,55.917,90.555,56.853,89.371,56.853z"/>
 
 
	<path class="bg-line" fill="#003A49" d="M50.965,28.897c-0.736,0-1.347,0.553-1.422,1.286c-0.039,0.381,0.073,0.753,0.314,1.05
		c0.242,0.296,0.584,0.48,0.965,0.52c4.044,0.411,7.094,3.791,7.094,7.859c0,0.789,0.642,1.432,1.431,1.432
		c0.79,0,1.432-0.643,1.432-1.432c0-5.544-4.155-10.146-9.666-10.708C51.062,28.899,51.014,28.897,50.965,28.897z"/>
 
 
	<path class="bg-line" fill="#003A49" d="M44.511,30.648c-0.306,0-0.598,0.096-0.845,0.276c-0.128,0.094-0.253,0.189-0.377,0.289
		c-0.615,0.495-0.714,1.397-0.22,2.013c0.479,0.596,1.414,0.698,2.014,0.22c0.09-0.072,0.182-0.143,0.275-0.212
		c0.637-0.467,0.776-1.364,0.31-2.001C45.399,30.867,44.966,30.648,44.511,30.648z"/>
 
 
	<path class="bg-line" fill="#003A49" d="M61.529,78.768l-4.75,15.921c-0.227,0.757,0.206,1.556,0.963,1.782c0.745,0.223,1.562-0.229,1.781-0.964
		l5.97-20.013c0.175-0.59-0.045-1.225-0.548-1.58c-0.494-0.348-1.188-0.341-1.672,0.018l-4.99,3.666l3.104-11.905
		c0.199-0.764-0.262-1.548-1.024-1.747c-0.758-0.197-1.553,0.277-1.747,1.025l-4.12,15.809c-0.152,0.584,0.081,1.205,0.582,1.545
		c0.492,0.334,1.172,0.322,1.651-0.031L61.529,78.768z"/>
 
 
	<path class="bg-line" fill="#003A49" d="M38.093,66.867c-0.453,0-0.884,0.218-1.153,0.582c-0.933,1.267-3.979,5.579-3.979,7.913
		c0,2.83,2.302,5.132,5.131,5.132s5.131-2.302,5.131-5.132c0-2.334-3.045-6.646-3.979-7.913
		C38.977,67.085,38.545,66.867,38.093,66.867z M38.093,77.631c-1.251,0-2.269-1.018-2.269-2.269c0-0.743,1.063-2.671,2.059-4.228
		l0.21-0.328l0.21,0.328c0.995,1.555,2.057,3.48,2.057,4.228C40.361,76.613,39.343,77.631,38.093,77.631z"/>
 
 
	<path class="bg-line" fill="#003A49" d="M44.394,84.251c-0.453,0-0.884,0.218-1.153,0.583c-0.933,1.266-3.979,5.578-3.979,7.912
		c0,2.83,2.302,5.132,5.131,5.132s5.131-2.302,5.131-5.132c0-2.333-3.045-6.646-3.979-7.912
		C45.277,84.469,44.846,84.251,44.394,84.251z M44.394,95.014c-1.25,0-2.268-1.018-2.268-2.268c0-0.745,1.063-2.672,2.058-4.227
		l0.21-0.33l0.21,0.33c0.995,1.553,2.057,3.479,2.057,4.227C46.661,93.996,45.644,95.014,44.394,95.014z"/>
 
 
	<path class="bg-line" fill="#003A49" d="M76.98,66.867c-0.453,0-0.885,0.218-1.154,0.582c-0.934,1.268-3.979,5.582-3.979,7.913
		c0,2.83,2.303,5.132,5.133,5.132c2.828,0,5.13-2.302,5.13-5.132c0-2.335-3.045-6.646-3.978-7.913
		C77.863,67.085,77.433,66.867,76.98,66.867z M76.98,77.631c-1.252,0-2.27-1.018-2.27-2.269c0-0.747,1.063-2.673,2.059-4.228
		l0.211-0.328l0.21,0.328c0.994,1.555,2.057,3.482,2.057,4.228C79.247,76.613,78.23,77.631,76.98,77.631z"/>
 
 
	<path class="bg-line" fill="#003A49" d="M83.279,84.251c-0.453,0-0.883,0.218-1.152,0.583c-0.934,1.266-3.979,5.579-3.979,7.912
		c0,2.83,2.302,5.132,5.131,5.132c2.83,0,5.131-2.302,5.131-5.132c0-1.859-2.055-5.307-3.979-7.912
		C84.163,84.469,83.732,84.251,83.279,84.251z M83.279,95.014c-1.25,0-2.268-1.018-2.268-2.268c0-0.746,1.062-2.672,2.058-4.227
		l0.21-0.33l0.211,0.33c0.994,1.553,2.058,3.479,2.058,4.227C85.548,93.996,84.53,95.014,83.279,95.014z"/>
 
 
	<path class="bg-hig" fill="#A9E6F5" d="M38.093,77.631c-1.251,0-2.269-1.018-2.269-2.269c0-0.743,1.063-2.671,2.059-4.228l0.21-0.328l0.21,0.328
		c0.995,1.555,2.057,3.48,2.057,4.228C40.361,76.613,39.343,77.631,38.093,77.631z"/>
 
 
	<path class="bg-hig" fill="#A9E6F5" d="M44.394,95.014c-1.25,0-2.268-1.018-2.268-2.268c0-0.745,1.063-2.672,2.058-4.227l0.21-0.33l0.21,0.33
		c0.995,1.553,2.057,3.479,2.057,4.227C46.661,93.996,45.644,95.014,44.394,95.014z"/>
 
 
	<path class="bg-hig" fill="#A9E6F5" d="M76.98,77.631c-1.252,0-2.27-1.018-2.27-2.269c0-0.747,1.063-2.673,2.059-4.228l0.211-0.328l0.21,0.328
		c0.994,1.555,2.057,3.482,2.057,4.228C79.247,76.613,78.23,77.631,76.98,77.631z"/>
 
 
	<path class="bg-hig" fill="#A9E6F5" d="M83.279,95.014c-1.25,0-2.268-1.018-2.268-2.268c0-0.746,1.062-2.672,2.058-4.227l0.21-0.33l0.211,0.33
		c0.994,1.553,2.058,3.479,2.058,4.227C85.548,93.996,84.53,95.014,83.279,95.014z"/>
 
</svg>
