<svg version="1.1" id="icon-door" xmlns="http://www.w3.org/2000/svg" xmlns:xlink="http://www.w3.org/1999/xlink" x="0px" y="0px"
	 width="120px" height="120px" viewBox="0 0 120 120" enable-background="new 0 0 120 120" xml:space="preserve" preserveAspectRatio="xMidYMid meet">
<circle class="bg-circle" fill="#F3F4F5" cx="60" cy="60" r="60"/>

	<rect class="bg-hig" x="46.797" y="34.627" fill="#A9E6F5" width="26.75" height="26.75"/>
	<rect class="bg-hig" x="46.797" y="72.627" fill="#A9E6F5" width="26.75" height="13.25"/>

	<path class="bg-line" fill="#003A49" d="M46.236,70.787c-0.709,0-1.285,0.576-1.285,1.285v13.764c-0.001,0.344,0.133,0.666,0.376,0.91
		c0.242,0.242,0.565,0.377,0.909,0.377h27.528c0.708,0,1.284-0.578,1.284-1.287V72.072c0-0.709-0.576-1.285-1.284-1.285H46.236z
		 M72.479,84.551H47.521V73.357h24.957V84.551z"/>
	<path class="bg-line" fill="#003A49" d="M78.147,62.525c-2.402,0-4.356,1.955-4.356,4.357s1.954,4.355,4.356,4.355c2.401,0,4.356-1.953,4.356-4.355
		S80.549,62.525,78.147,62.525z M78.147,69.113c-1.231,0-2.231-1-2.231-2.23s1-2.232,2.231-2.232c1.23,0,2.231,1.002,2.231,2.232
		S79.378,69.113,78.147,69.113z"/>
	<path class="bg-line" fill="#003A49" d="M35.854,22.496c-0.709,0-1.286,0.576-1.286,1.285v72.438c0,0.709,0.577,1.285,1.286,1.285h48.291
		c0.709,0,1.286-0.576,1.286-1.285V23.781c0-0.709-0.577-1.285-1.286-1.285H35.854z M82.861,94.934H37.138V25.067h45.724V94.934z"/>
	<path class="bg-line" fill="#003A49" d="M46.236,32.877c-0.709,0-1.285,0.577-1.285,1.286v27.526c-0.001,0.344,0.133,0.666,0.376,0.91
		c0.242,0.242,0.565,0.377,0.909,0.377h27.528c0.708,0,1.284-0.578,1.284-1.287V34.164c0-0.709-0.576-1.286-1.284-1.286H46.236z
		 M72.479,60.405H47.521V35.449h24.957V60.405z"/>
</svg>
