<svg version="1.1" id="icon-water" xmlns="http://www.w3.org/2000/svg" xmlns:xlink="http://www.w3.org/1999/xlink" x="0px" y="0px"
	 width="120px" height="120px" viewBox="0 0 120 120" enable-background="new 0 0 120 120" xml:space="preserve" preserveAspectRatio="xMidYMid meet">
<circle class="bg-circle" fill="#F3F4F5"  cx="60" cy="60" r="60"/>
<path class="bg-hig" fill="#A9E6F5" d="M62.141,90.659c-10.414,0-18.886-8.473-18.886-18.887c0-11.651,14.36-34.426,18.761-41.129l0.125-0.191
	l0.125,0.191c4.402,6.704,18.762,29.482,18.762,41.129C81.027,82.187,72.555,90.659,62.141,90.659z"/>

	<path class="bg-line" fill="#003A49" d="M75.236,70.384c-0.766,0-1.389,0.624-1.389,1.39c0,6.454-5.252,11.705-11.707,11.705
		c-0.766,0-1.388,0.623-1.388,1.389s0.623,1.389,1.388,1.389c7.986,0,14.482-6.497,14.482-14.482
		C76.623,71.008,76.002,70.384,75.236,70.384z"/>

	<path class="bg-line" fill="#003A49" d="M83.254,32.795c-0.766,0-1.389,0.623-1.389,1.389s0.623,1.389,1.389,1.389h3.139v3.141
		c0,0.766,0.623,1.389,1.389,1.389s1.389-0.623,1.389-1.389v-3.141h3.141c0.766,0,1.389-0.623,1.389-1.389s-0.623-1.389-1.389-1.389
		H89.17v-3.14c0-0.766-0.623-1.389-1.389-1.389s-1.389,0.623-1.389,1.389v3.14H83.254z"/>
	<path class="bg-line" fill="#003A49" d="M27.69,79.127c-0.766,0-1.389,0.623-1.389,1.389s0.623,1.389,1.389,1.389h3.141v3.141
		c0,0.766,0.622,1.389,1.388,1.389s1.388-0.623,1.388-1.389v-3.141h3.141c0.766,0,1.388-0.623,1.388-1.389s-0.622-1.389-1.388-1.389
		h-3.141v-3.14c0-0.767-0.622-1.39-1.388-1.39s-1.388,0.623-1.388,1.39v3.14H27.69z"/>
	<path class="bg-line" fill="#003A49" d="M62.141,26.563c-0.459,0-0.887,0.226-1.144,0.603c-0.838,1.221-20.519,30.05-20.519,44.606
		c0,11.945,9.718,21.664,21.663,21.664c11.945,0,21.662-9.719,21.662-21.664c0-14.557-19.68-43.386-20.518-44.606
		C63.027,26.789,62.6,26.563,62.141,26.563z M62.141,90.659c-10.414,0-18.886-8.473-18.886-18.887
		c0-11.651,14.36-34.426,18.761-41.129l0.125-0.191l0.125,0.191c4.402,6.704,18.762,29.482,18.762,41.129
		C81.027,82.187,72.555,90.659,62.141,90.659z"/>
</svg>
