<svg version="1.1" id="icon-facade" xmlns="http://www.w3.org/2000/svg" xmlns:xlink="http://www.w3.org/1999/xlink" x="0px" y="0px"
	 width="120px" height="120px" viewBox="0 0 120 120" enable-background="new 0 0 120 120" xml:space="preserve" preserveAspectRatio="xMidYMid meet">
	<circle class="bg-circle" fill="#F3F4F5"  cx="60" cy="60" r="60"/>
 
	<path class="bg-hig" fill="#A9E6F5" d="M84.597,58.959l-0.155-0.105c-0.687-0.463-1.429-0.697-2.207-0.697H61.281V27.101h23.315V58.959z"/>
		 
	<path class="bg-line" fill="#003A49" d="M34.085,24.461c-0.729,0-1.321,0.592-1.321,1.319v68.438c0,0.729,0.593,1.32,1.321,1.32h51.832
		c0.728,0,1.319-0.592,1.319-1.32V25.781c0-0.728-0.592-1.319-1.319-1.319H34.085z M84.597,92.9H35.404v-65.8H58.64v31.057h-1.466
		c-2.83,0-5.048,3.148-5.048,7.167c0,4.02,2.218,7.168,5.048,7.168h25.061c0.779,0,1.521-0.234,2.207-0.697l0.155-0.105V92.9z
		 M82.234,69.852c-1.377,0-2.406-2.389-2.406-4.527c0-2.137,1.029-4.527,2.406-4.527c1.081,0,2.141,1.654,2.362,3.687v1.67
		C84.375,68.197,83.315,69.852,82.234,69.852z M78.293,69.852H57.174c-1.378,0-2.407-2.389-2.407-4.527
		c0-2.137,1.029-4.527,2.407-4.527h21.119l-0.079,0.147c-0.672,1.25-1.027,2.764-1.027,4.379s0.355,3.131,1.027,4.381
		L78.293,69.852z M84.597,58.959l-0.155-0.105c-0.687-0.463-1.429-0.697-2.207-0.697H61.281V27.101h23.315V58.959z"/>
	 		 
	<path class="bg-line" fill="#003A49" d="M81.701,28.721c-0.727,0-1.318,0.592-1.318,1.319v11.785c0,0.728,0.592,1.319,1.318,1.319
		c0.729,0,1.321-0.592,1.321-1.319V30.041C83.022,29.313,82.43,28.721,81.701,28.721z"/>
		 
	<path class="bg-line" fill="#003A49" d="M81.701,45.233c-0.783,0-1.418,0.636-1.418,1.419v0.994c0,0.784,0.635,1.42,1.418,1.42
		c0.785,0,1.421-0.636,1.421-1.42v-0.994C83.122,45.869,82.486,45.233,81.701,45.233z"/>
	 
	<path class="bg-hig" fill="#A9E6F5" d="M78.293,69.852H57.174c-1.378,0-2.407-2.389-2.407-4.527c0-2.137,1.029-4.527,2.407-4.527h21.119
	l-0.079,0.147c-0.672,1.25-1.027,2.764-1.027,4.379s0.355,3.131,1.027,4.381L78.293,69.852z"/>
</svg>
