<svg version="1.1" id="icon-elevator" xmlns="http://www.w3.org/2000/svg" xmlns:xlink="http://www.w3.org/1999/xlink" x="0px" y="0px"
	 width="120px" height="120px" viewBox="0 0 120 120" enable-background="new 0 0 120 120" xml:space="preserve" preserveAspectRatio="xMidYMid meet">
	<circle class="bg-circle" fill="#F3F4F5"  cx="60" cy="60" r="60"/>
		<path class="bg-line" fill="#003A49" d="M31.317,25.487c-0.705,0-1.279,0.574-1.279,1.28v66.468c0,0.704,0.574,1.277,1.279,1.277h57.367
			c0.705,0,1.279-0.573,1.279-1.277V26.768c0-0.706-0.574-1.28-1.279-1.28H31.317z M87.404,91.956h-8.371v-56.72
			c0-0.705-0.572-1.277-1.277-1.277h-35.51c-0.706,0-1.28,0.573-1.28,1.277v56.72h-8.37V28.045h54.809V91.956z M76.475,91.956
			H61.18v-47.4c0-0.705-0.574-1.279-1.279-1.279c-0.706,0-1.28,0.574-1.28,1.279v47.4H43.524V36.515h32.951V91.956z"/>
	 
		<path class="bg-line" fill="#003A49" d="M59.901,38.463c-0.706,0-1.28,0.573-1.28,1.277v0.54c0,0.706,0.574,1.28,1.28,1.28
			c0.705,0,1.279-0.574,1.279-1.28v-0.54C61.18,39.036,60.606,38.463,59.901,38.463z"/>
	 		 
		<path class="bg-line" fill="#003A49" d="M36.694,54.309c-0.705,0-1.279,0.574-1.279,1.279v1.792c0,0.706,0.574,1.279,1.279,1.279
			c0.706,0,1.281-0.574,1.281-1.279v-1.792C37.975,54.882,37.4,54.309,36.694,54.309z"/>
	 
		<path class="bg-line" fill="#003A49" d="M36.694,61.757c-0.705,0-1.279,0.572-1.279,1.277v1.792c0,0.706,0.574,1.279,1.279,1.279
			c0.706,0,1.281-0.573,1.281-1.279v-1.792C37.975,62.329,37.4,61.757,36.694,61.757z"/>
	 
		<path class="bg-line" fill="#003A49" d="M47.106,29.763c-0.705,0-1.277,0.573-1.277,1.278c0,0.706,0.573,1.28,1.277,1.28h0.69
			c0.706,0,1.279-0.574,1.279-1.28c0-0.705-0.574-1.278-1.279-1.278H47.106z"/>
	 
		<path class="bg-line" fill="#003A49" d="M71.928,29.763c-0.705,0-1.279,0.573-1.279,1.278c0,0.706,0.574,1.28,1.279,1.28h0.689
			c0.705,0,1.279-0.574,1.279-1.28c0-0.705-0.574-1.278-1.279-1.278H71.928z"/>
	 
		<path class="bg-line" fill="#003A49" d="M53.311,29.763c-0.705,0-1.279,0.573-1.279,1.278c0,0.706,0.574,1.28,1.279,1.28H54
			c0.706,0,1.279-0.574,1.279-1.28c0-0.705-0.574-1.278-1.279-1.278H53.311z"/>
	 
		<path class="bg-line" fill="#003A49" d="M65.723,29.763c-0.705,0-1.279,0.573-1.279,1.278c0,0.706,0.574,1.28,1.279,1.28h0.689
			c0.707,0,1.279-0.574,1.279-1.28c0-0.705-0.572-1.278-1.279-1.278H65.723z"/>
	 
		<path class="bg-line" fill="#003A49" d="M59.518,29.763c-0.705,0-1.279,0.573-1.279,1.278c0,0.706,0.574,1.28,1.279,1.28h0.69
			c0.703,0,1.276-0.574,1.276-1.28c0-0.705-0.573-1.278-1.276-1.278H59.518z"/>
	 
		<path class="bg-hig" fill="#A9E6F5" d="M76.475,91.956H61.18v-47.4c0-0.705-0.574-1.279-1.279-1.279c-0.706,0-1.28,0.574-1.28,1.279v47.4H43.524
			V36.515h32.951V91.956z"/>
 
</svg>
