<svg version="1.1" id="icon-gestion" xmlns="http://www.w3.org/2000/svg" xmlns:xlink="http://www.w3.org/1999/xlink" x="0px" y="0px"
	 width="120px" height="120px" viewBox="0 0 120 120" enable-background="new 0 0 120 120" xml:space="preserve" preserveAspectRatio="xMidYMid meet">
	<circle class="bg-circle" fill="#F3F4F5"  cx="60" cy="60" r="60"/>
	<path class="bg-line" fill="#003A49" d="M96.595,81.903h-1.496v-1.495c0-2.28-1.855-4.135-4.134-4.135H71.259c-2.279,0-4.135,1.854-4.135,4.135
	v1.495H65.63c-2.28,0-4.135,1.854-4.135,4.134v2.816c0,0.729,0.59,1.318,1.318,1.318H99.41c0.728,0,1.319-0.59,1.319-1.318v-2.816
	C100.729,83.758,98.874,81.903,96.595,81.903z M69.763,80.408c0-0.825,0.672-1.496,1.496-1.496h19.706
	c0.824,0,1.495,0.671,1.495,1.496v1.495H69.763V80.408z M98.089,87.533H64.134v-1.496c0-0.824,0.671-1.494,1.496-1.494h30.965
	c0.824,0,1.494,0.67,1.494,1.494V87.533z"/>
	<path class="bg-line" fill="#003A49" d="M64.434,58.824l-0.062,0.062c-1.611,1.613-1.611,4.235,0,5.847c0.806,0.807,1.865,1.209,2.924,1.209
	c1.058,0,2.117-0.402,2.924-1.209l7.961-7.961c0.781-0.781,1.212-1.819,1.212-2.925c0-1.104-0.431-2.142-1.212-2.922
	c-0.781-0.782-1.818-1.212-2.923-1.212s-2.144,0.43-2.924,1.211l-0.062,0.062l-2.357-2.356c0.264-0.923,0.033-1.957-0.691-2.683
	l-9.952-9.952c-0.726-0.725-1.76-0.954-2.681-0.69l-2.357-2.357l0.062-0.062c0.781-0.781,1.21-1.819,1.21-2.923
	c0-1.105-0.429-2.144-1.21-2.924c-0.781-0.781-1.819-1.211-2.924-1.211s-2.143,0.43-2.924,1.211l-7.962,7.962
	c-0.781,0.781-1.211,1.819-1.211,2.923c0,1.105,0.43,2.144,1.211,2.924c0.781,0.781,1.819,1.212,2.924,1.212
	s2.143-0.431,2.924-1.212l0.062-0.062l2.355,2.355c-0.069,0.242-0.106,0.495-0.106,0.755c0,0.728,0.284,1.412,0.799,1.928
	l1.058,1.058l-5.038,5.038c-0.873,0.873-1.27,2.042-1.196,3.187L20.481,78.892c-0.781,0.781-1.211,1.819-1.211,2.923
	c0,1.105,0.43,2.143,1.211,2.924c0.806,0.807,1.864,1.209,2.924,1.209c1.059,0,2.117-0.402,2.923-1.209l23.785-23.784
	c0.088,0.005,0.176,0.013,0.264,0.013c1.059,0,2.117-0.402,2.924-1.209l5.038-5.039l1.057,1.058c0.516,0.516,1.199,0.799,1.93,0.799
	c0.258,0,0.512-0.037,0.754-0.107L64.434,58.824L64.434,58.824z M75.258,52.353c0.399,0,0.774,0.156,1.058,0.438
	c0.281,0.282,0.438,0.657,0.438,1.057c0,0.4-0.154,0.775-0.438,1.058l-7.963,7.963c-0.583,0.583-1.531,0.583-2.114,0
	s-0.583-1.532,0-2.114l0.995-0.996l0,0l6.967-6.967C74.481,52.509,74.858,52.353,75.258,52.353L75.258,52.353z M66.3,56.959
	l-2.113-2.116l4.104-4.104l2.116,2.114L66.3,56.959L66.3,56.959z M67.358,47.814c0.034,0.034,0.034,0.09,0,0.124l-5.971,5.971
	l-0.001,0.001c-0.001,0-0.001,0-0.001,0c-0.006,0.007-0.025,0.026-0.061,0.026c-0.037,0-0.057-0.021-0.063-0.026l0,0l-1.99-1.99l0,0
	l0,0l-7.962-7.962c-0.007-0.006-0.025-0.026-0.025-0.062s0.019-0.056,0.025-0.062l5.97-5.971c0.001-0.001,0.001-0.001,0.002-0.001
	c0,0,0,0,0-0.001c0.017-0.017,0.04-0.025,0.062-0.025c0.022,0,0.045,0.009,0.062,0.025L67.358,47.814L67.358,47.814z M43.41,39.42
	c-0.399,0-0.775-0.155-1.058-0.438l0,0c-0.282-0.283-0.438-0.659-0.438-1.059c0-0.398,0.155-0.774,0.438-1.057l7.961-7.963
	c0.283-0.281,0.659-0.438,1.059-0.438s0.774,0.156,1.058,0.438c0.583,0.582,0.583,1.531,0,2.114l-0.995,0.995v0.001l-6.968,6.967
	C44.185,39.265,43.81,39.42,43.41,39.42L43.41,39.42z M52.367,34.814l2.114,2.114l-4.105,4.105l-2.114-2.115L52.367,34.814z
	 M24.463,82.873c-0.584,0.582-1.532,0.582-2.115,0c-0.282-0.283-0.438-0.658-0.438-1.059c0-0.398,0.155-0.774,0.438-1.057
	l23.056-23.056c0.021,0.021,0.038,0.044,0.06,0.065l1.99,1.99c0.021,0.021,0.044,0.038,0.065,0.059L24.463,82.873z M51.435,57.892
	c-0.584,0.582-1.532,0.582-2.116,0l-1.989-1.99c-0.584-0.583-0.584-1.532,0-2.115l5.038-5.038l4.105,4.104L51.435,57.892z"/>
	<path class="bg-hig" fill="#A9E6F5" d="M75.258,52.353c0.399,0,0.774,0.156,1.058,0.438c0.281,0.282,0.438,0.657,0.438,1.057
	c0,0.4-0.154,0.775-0.438,1.058l-7.963,7.963c-0.583,0.583-1.531,0.583-2.114,0s-0.583-1.532,0-2.114l0.995-0.996l0,0l6.967-6.967
	C74.481,52.509,74.858,52.353,75.258,52.353L75.258,52.353z M67.358,47.814c0.034,0.034,0.034,0.09,0,0.124l-5.971,5.971
	l-0.001,0.001c-0.001,0-0.001,0-0.001,0c-0.006,0.007-0.025,0.026-0.061,0.026c-0.037,0-0.057-0.021-0.063-0.026l0,0l-1.99-1.99l0,0
	l0,0l-7.962-7.962c-0.007-0.006-0.025-0.026-0.025-0.062s0.019-0.056,0.025-0.062l5.97-5.971c0.001-0.001,0.001-0.001,0.002-0.001
	c0,0,0,0,0-0.001c0.017-0.017,0.04-0.025,0.062-0.025c0.022,0,0.045,0.009,0.062,0.025L67.358,47.814L67.358,47.814z M43.41,39.42
	c-0.399,0-0.775-0.155-1.058-0.438l0,0c-0.282-0.283-0.438-0.659-0.438-1.059c0-0.398,0.155-0.774,0.438-1.057l7.961-7.963
	c0.283-0.281,0.659-0.438,1.059-0.438s0.774,0.156,1.058,0.438c0.583,0.582,0.583,1.531,0,2.114l-0.995,0.995v0.001l-6.968,6.967
	C44.185,39.265,43.81,39.42,43.41,39.42L43.41,39.42z"/>
</svg>
