<svg version="1.1" id="icon-window" xmlns="http://www.w3.org/2000/svg" xmlns:xlink="http://www.w3.org/1999/xlink" x="0px" y="0px"
	 width="120px" height="120px" viewBox="0 0 120 120" enable-background="new 0 0 120 120" xml:space="preserve" preserveAspectRatio="xMidYMid meet">
	<circle class="bg-circle" fill="#F3F4F5"  cx="60" cy="60" r="60"/>
	<rect x="37.624" y="35.272" class="bg-hig" fill="#A9E6F5" width="44.989" height="54.766"/>

	<path class="bg-line" fill="#003A49" d="M92.404,88.803h-2.401h-1.2v-57.8c1.422-0.478,2.401-1.791,2.401-3.407c0-2.04-1.561-3.601-3.602-3.601
		H32.396c-2.04,0-3.601,1.561-3.601,3.601c0,1.598,1.031,2.901,2.4,3.391v57.816h-1.2h-2.399c-0.722,0-1.2,0.48-1.2,1.201
		s0.479,1.199,1.2,1.199h1.199v1.201c0,2.041,1.561,3.601,3.601,3.601h55.207c2.041,0,3.601-1.56,3.601-3.601v-1.201h1.201
		c0.719,0,1.2-0.479,1.2-1.199S93.123,88.803,92.404,88.803z M32.396,26.396h55.207c0.72,0,1.2,0.48,1.2,1.2s-0.48,1.2-1.2,1.2
		H32.396c-0.72,0-1.2-0.601-1.2-1.2S31.796,26.396,32.396,26.396z M33.595,31.196h52.809v57.606h-2.399V69.602V34.797
		c0-0.721-0.481-1.201-1.202-1.201H37.195c-0.72,0-1.201,0.48-1.201,1.201v34.805v19.201h-2.399V31.196z M81.603,68.401H38.396
		V35.997h43.206V68.401z M38.396,70.801h43.206v18.002H38.396V70.801z M88.803,92.404c0,0.72-0.479,1.201-1.2,1.201H32.396
		c-0.72,0-1.2-0.481-1.2-1.201v-1.199h1.2h4.8h45.606h4.801h1.2V92.404L88.803,92.404z"/>
	<path class="bg-line" fill="#003A49" d="M41.996,44.397c0.362,0,0.6-0.12,0.84-0.359l3.602-3.601c0.479-0.479,0.479-1.2,0-1.681
		c-0.48-0.479-1.2-0.479-1.68,0l-3.601,3.601c-0.48,0.479-0.48,1.2,0,1.681C41.396,44.277,41.637,44.397,41.996,44.397z"/>
	<path class="bg-line" fill="#003A49" d="M50.757,46.438c0.242,0.24,0.48,0.36,0.84,0.36c0.36,0,0.602-0.12,0.841-0.36l6.001-6.001
		c0.479-0.48,0.479-1.201,0-1.681c-0.479-0.48-1.2-0.479-1.68,0l-6.002,6.001C50.278,45.238,50.278,45.958,50.757,46.438z"/>
	<path class="bg-line" fill="#003A49" d="M41.996,56.399c0.362,0,0.6-0.12,0.84-0.359l2.401-2.401c0.479-0.479,0.479-1.199,0-1.68
		s-1.199-0.48-1.68,0l-2.4,2.4c-0.48,0.479-0.48,1.2,0,1.681C41.396,56.279,41.637,56.399,41.996,56.399z"/>
	<path class="bg-line" fill="#003A49" d="M41.996,50.398c0.362,0,0.6-0.12,0.84-0.36l2.401-2.4c0.479-0.479,0.479-1.199,0-1.68s-1.199-0.48-1.68,0
		l-2.4,2.4c-0.48,0.479-0.48,1.2,0,1.68C41.396,50.278,41.637,50.398,41.996,50.398z"/>
	<path class="bg-line" fill="#003A49" d="M47.157,44.038c0.24,0.239,0.48,0.359,0.84,0.359c0.36,0,0.601-0.12,0.841-0.359l3.6-3.601
		c0.481-0.479,0.481-1.2,0-1.681c-0.48-0.479-1.2-0.479-1.681,0l-3.6,3.601C46.677,42.837,46.677,43.558,47.157,44.038z"/>
	<path class="bg-line" fill="#003A49" d="M47.997,47.998c-0.72,0-1.199,0.48-1.199,1.2s0.479,1.2,1.199,1.2s1.2-0.48,1.2-1.2
		S48.717,47.998,47.997,47.998z"/>

</svg>
