<svg version="1.1" id="icon-wall" xmlns="http://www.w3.org/2000/svg" xmlns:xlink="http://www.w3.org/1999/xlink" x="0px" y="0px"
	 width="120px" height="120px" viewBox="0 0 120 120" enable-background="new 0 0 120 120" xml:space="preserve" preserveAspectRatio="xMidYMid meet">
	<circle class="bg-circle" fill="#F3F4F5"  cx="60" cy="60" r="60"/>
	<rect x="29.575" y="60.525" class="bg-hig" fill="#A9E6F5" width="60.75" height="30.25"/>

	<path class="bg-line" fill="#003A49" d="M85.376,74.105c-0.679,0-1.231,0.553-1.231,1.232c0,0.678,0.553,1.23,1.231,1.23h0.77
		c0.679,0,1.231-0.553,1.231-1.23c0-0.68-0.553-1.232-1.231-1.232H85.376z"/>
		
	<path class="bg-line" fill="#003A49" d="M29.112,27.881c-0.679,0-1.231,0.553-1.231,1.231v61.776c0,0.678,0.553,1.23,1.231,1.23h61.775
		c0.679,0,1.231-0.553,1.231-1.23V29.112c0-0.679-0.553-1.231-1.231-1.231H29.112z M89.655,89.656h-13.13V76.568h4.236
		c0.68,0,1.233-0.553,1.233-1.23c0-0.68-0.554-1.232-1.233-1.232H61.274V61.231h28.381V89.656z M74.062,89.656H45.938V76.568
		h28.125V89.656z M43.475,89.656h-13.13V76.568h13.13V89.656z M58.811,74.105H30.345V61.231h28.466V74.105z M89.606,58.769H76.525
		V45.98h13.13v12.739h-0.049V58.769z M74.062,58.769H45.938V45.98h28.125V58.769z M43.475,58.769h-13.13V45.98h13.13V58.769z
		 M89.655,43.517H61.274V30.344h28.381V43.517z M58.811,43.517H30.345V30.344h28.466V43.517z"/>
		
</svg>
