<svg version="1.1" id="icon-electricity" xmlns="http://www.w3.org/2000/svg" xmlns:xlink="http://www.w3.org/1999/xlink" x="0px" y="0px"
	 width="120px" height="120px" viewBox="0 0 120 120" enable-background="new 0 0 120 120" xml:space="preserve" preserveAspectRatio="xMidYMid meet">
	<circle class="bg-circle" fill="#F3F4F5"  cx="60" cy="60" r="60"/>
	<path class="bg-line" fill="#003A49" d="M57.676,31.143c-3.034,0-5.502,2.468-5.502,5.502v34.933c0,3.033,2.468,5.502,5.502,5.502h34.934
				c3.034,0,5.502-2.469,5.502-5.502V36.645c0-3.034-2.468-5.502-5.502-5.502H57.676z M92.609,74.329H57.676
				c-1.518,0-2.752-1.234-2.752-2.752V36.645c0-1.519,1.235-2.753,2.752-2.753h34.934c1.518,0,2.753,1.234,2.753,2.753v34.933
				C95.362,73.095,94.127,74.329,92.609,74.329z"/>
	<path class="bg-line" fill="#003A49" d="M75.144,39.146c-8.252,0-14.966,6.714-14.966,14.966c0,8.251,6.714,14.964,14.966,14.964
		c8.25,0,14.963-6.713,14.963-14.964C90.106,45.859,83.394,39.146,75.144,39.146z M75.144,66.327
		c-6.137,0-11.346-4.588-12.117-10.673l-0.021-0.169h0.66c0.759,0,1.376-0.616,1.376-1.374c0-0.759-0.617-1.375-1.376-1.375h-0.66
		l0.021-0.169c0.771-6.084,5.979-10.673,12.117-10.673c6.135,0,11.344,4.589,12.114,10.673l0.021,0.169H86.62
		c-0.759,0-1.375,0.616-1.375,1.375c0,0.758,0.616,1.374,1.375,1.374h0.659l-0.021,0.169
		C86.487,61.739,81.278,66.327,75.144,66.327z"/>
	<path class="bg-line" fill="#003A49" d="M71.292,50.698c-0.758,0-1.375,0.616-1.375,1.374v4.077c0,0.758,0.617,1.374,1.375,1.374
		s1.374-0.616,1.374-1.374v-4.077C72.666,51.314,72.05,50.698,71.292,50.698z"/>
	<path class="bg-line" fill="#003A49" d="M78.993,50.698c-0.758,0-1.375,0.616-1.375,1.374v4.077c0,0.758,0.617,1.374,1.375,1.374
		s1.375-0.616,1.375-1.374v-4.077C80.368,51.314,79.751,50.698,78.993,50.698z"/>
		 
	<path class="bg-line" fill="#003A49" d="M94.774,86.108c-0.758,0-1.375,0.616-1.375,1.375c0,0.758,0.617,1.374,1.375,1.374h1.661
		c0.757,0,1.374-0.616,1.374-1.374c0-0.759-0.617-1.375-1.374-1.375H94.774z"/>

	<path class="bg-line" fill="#003A49" d="M25.502,43.508c-1.993,0-3.613,1.621-3.613,3.613V57.37c0,6.66,5.213,12.062,11.869,12.299l0.145,0.006
		v5.25c0,7.682,6.25,13.933,13.934,13.933h39.69c0.757,0,1.373-0.616,1.373-1.374c0-0.759-0.616-1.375-1.373-1.375H47.835
		c-6.167,0-11.184-5.018-11.184-11.184v-5.28l0.137-0.012c6.32-0.53,11.271-5.917,11.271-12.263V47.121
		c0-1.993-1.621-3.614-3.613-3.614h-3.241v-8.739c0-0.758-0.617-1.375-1.375-1.375c-0.758,0-1.374,0.617-1.374,1.375v8.74h-6.966
		v-8.74c0-0.758-0.617-1.375-1.375-1.375c-0.758,0-1.375,0.617-1.375,1.375v8.74H25.502z M35.751,66.931h-1.552
		c-5.272,0-9.562-4.289-9.562-9.561V47.121c0-0.477,0.388-0.864,0.865-0.864h18.946c0.477,0,0.865,0.388,0.865,0.864V57.37
		C45.312,62.642,41.023,66.931,35.751,66.931z"/>
		 
	<path class="bg-hig" fill="#A9E6F5" d="M35.751,66.931h-1.552c-5.272,0-9.562-4.289-9.562-9.561V47.121c0-0.477,0.388-0.864,0.865-0.864h18.946
		c0.477,0,0.865,0.388,0.865,0.864V57.37C45.312,62.642,41.023,66.931,35.751,66.931z"/>	 
 
	<path class="bg-hig" fill="#A9E6F5" d="M92.609,33.892H57.676c-1.518,0-2.752,1.234-2.752,2.753v34.933c0,1.518,1.235,2.752,2.752,2.752h34.934
	c1.518,0,2.753-1.234,2.753-2.752V36.645C95.362,35.126,94.127,33.892,92.609,33.892z M75.144,69.075
	c-8.252,0-14.966-6.713-14.966-14.964c0-8.252,6.714-14.966,14.966-14.966c8.25,0,14.963,6.714,14.963,14.966
	C90.106,62.362,83.394,69.075,75.144,69.075z"/>
</svg>
