<svg version="1.1" id="icon-installation" xmlns="http://www.w3.org/2000/svg" xmlns:xlink="http://www.w3.org/1999/xlink" x="0px" y="0px"
	 width="120px" height="120px" viewBox="0 0 120 120" enable-background="new 0 0 120 120" xml:space="preserve" preserveAspectRatio="xMidYMid meet">
	<circle class="bg-circle" fill="#F3F4F5"  cx="60" cy="60" r="60"/>
 
	<path class="bg-line" fill="#003A49" d="M85.359,30.284H47.321c-7.98,0-14.37,3.395-15.329,7.924h-6.86c-0.655,0-1.188,0.532-1.188,1.189
			c0,0.656,0.533,1.188,1.188,1.188h6.86c0.943,4.448,7.123,7.804,14.906,7.921l7.604,6.083c0.211,0.168,0.473,0.26,0.742,0.26
			h17.616l-1.354,8.125c-0.057,0.346,0.04,0.697,0.266,0.963c0.226,0.268,0.558,0.42,0.907,0.42h5.149v0.398
			c0,1.965-1.598,3.564-3.565,3.564c-3.276,0-5.943,2.666-5.943,5.945c0,3.275,2.667,5.941,5.943,5.941h11.404
			c-0.578,4.027-4.051,7.133-8.234,7.133H52.075c-4.587,0-8.321-3.732-8.321-8.32v-8.441c2.711-0.551,4.757-2.953,4.757-5.822v-3.17
			c0-0.658-0.534-1.189-1.19-1.189h-0.396v-3.566c0-0.656-0.532-1.189-1.188-1.189c-0.658,0-1.189,0.533-1.189,1.189v3.566h-3.963
			v-3.566c0-0.656-0.531-1.189-1.188-1.189c-0.655,0-1.188,0.533-1.188,1.189v3.566h-0.396c-0.656,0-1.188,0.532-1.188,1.188v3.172
			c0,2.869,2.045,5.271,4.755,5.822v8.441c0,5.898,4.798,10.697,10.697,10.697h25.358c5.497,0,10.038-4.168,10.631-9.51h6.803
			c0.657,0,1.189-0.531,1.189-1.188V40.981C96.057,35.083,91.258,30.284,85.359,30.284z M38.208,44.174
			c-2.43-1.231-3.962-2.932-3.962-4.777c0-1.847,1.532-3.547,3.962-4.778V44.174z M46.133,46.102
			c-2.003-0.098-3.891-0.439-5.547-0.966V33.657c1.656-0.527,3.544-0.869,5.547-0.966V46.102z M39,64.756v-1.982h7.133v1.982
			c0,1.965-1.602,3.564-3.567,3.564S39,66.721,39,64.756z M74.082,61.98l1.189-7.131h2.558v7.131H74.082z M93.678,77.83H74.264
			c-1.966,0-3.567-1.602-3.567-3.566c0-1.967,1.602-3.564,3.567-3.564c3.278,0,5.943-2.668,5.943-5.945V63.17v-9.509
			c0-0.657-0.532-1.189-1.188-1.189h-4.755H55.662l-7.151-5.723V32.661h36.847c4.588,0,8.32,3.733,8.32,8.32V77.83L93.678,77.83z"/>
	<path class="bg-line" fill="#003A49" d="M67.925,46.132h-7.926c-0.655,0-1.188,0.533-1.188,1.189c0,0.657,0.533,1.189,1.188,1.189h7.926
		c0.657,0,1.188-0.532,1.188-1.189C69.113,46.665,68.582,46.132,67.925,46.132z"/>
	<path class="bg-line" fill="#003A49" d="M67.925,41.377h-7.926c-0.655,0-1.188,0.532-1.188,1.188c0,0.657,0.533,1.189,1.188,1.189h7.926
		c0.657,0,1.188-0.532,1.188-1.189C69.113,41.909,68.582,41.377,67.925,41.377z"/>
	<path class="bg-line" fill="#003A49" d="M67.925,36.624h-7.926c-0.655,0-1.188,0.531-1.188,1.188c0,0.656,0.533,1.188,1.188,1.188h7.926
		c0.657,0,1.188-0.532,1.188-1.188C69.113,37.155,68.582,36.624,67.925,36.624z"/>
 
	<path class="bg-hig" fill="#A9E6F5" d="M85.357,32.661H48.511v14.088l7.151,5.723h18.602h4.755c0.656,0,1.188,0.532,1.188,1.189v9.509v1.584
		c0,3.277-2.665,5.945-5.943,5.945c-1.966,0-3.567,1.598-3.567,3.564c0,1.965,1.602,3.566,3.567,3.566h19.414V40.981
		C93.678,36.394,89.945,32.661,85.357,32.661z M67.925,48.51h-7.926c-0.655,0-1.188-0.532-1.188-1.189
		c0-0.656,0.533-1.189,1.188-1.189h7.926c0.657,0,1.188,0.533,1.188,1.189C69.113,47.978,68.582,48.51,67.925,48.51z M67.925,43.755
		h-7.926c-0.655,0-1.188-0.532-1.188-1.189c0-0.657,0.533-1.188,1.188-1.188h7.926c0.657,0,1.188,0.532,1.188,1.188
		C69.113,43.223,68.582,43.755,67.925,43.755z M67.925,39h-7.926c-0.655,0-1.188-0.532-1.188-1.188c0-0.657,0.533-1.188,1.188-1.188
		h7.926c0.657,0,1.188,0.531,1.188,1.188C69.113,38.468,68.582,39,67.925,39z"/>
</svg>
