<svg version="1.1" id="icon-heating" xmlns="http://www.w3.org/2000/svg" xmlns:xlink="http://www.w3.org/1999/xlink" x="0px" y="0px"
	 width="120px" height="120px" viewBox="0 0 120 120" enable-background="new 0 0 120 120" xml:space="preserve" preserveAspectRatio="xMidYMid meet">
	<circle class="bg-circle" fill="#F3F4F5"  cx="60" cy="60" r="60"/>
	<path class="bg-line" fill="#003A49" d="M73.547,41.934c-1.867,0-3.385,1.521-3.385,3.388v29.356c0,1.868,1.518,3.387,3.385,3.387
		c1.869,0,3.389-1.519,3.389-3.387V45.322C76.936,43.455,75.416,41.934,73.547,41.934z M74.676,74.678
		c0,0.622-0.504,1.129-1.129,1.129c-0.621,0-1.129-0.507-1.129-1.129V45.322c0-0.624,0.508-1.129,1.129-1.129
		c0.625,0,1.129,0.506,1.129,1.129V74.678z"/>
	<path class="bg-line" fill="#003A49" d="M62.258,41.934c-1.868,0-3.387,1.521-3.387,3.388v29.356c0,1.868,1.52,3.387,3.387,3.387
		c1.867,0,3.387-1.519,3.387-3.387V45.322C65.645,43.455,64.125,41.934,62.258,41.934z M63.387,74.678
		c0,0.622-0.506,1.129-1.129,1.129s-1.129-0.507-1.129-1.129V45.322c0-0.624,0.506-1.129,1.129-1.129s1.129,0.506,1.129,1.129V74.678
		z"/>
	<path class="bg-line" fill="#003A49" d="M39.677,41.934c-1.869,0-3.389,1.521-3.389,3.388v29.356c0,1.868,1.52,3.387,3.389,3.387
		c1.866,0,3.387-1.519,3.387-3.387V45.322C43.064,43.455,41.543,41.934,39.677,41.934z M40.806,74.678
		c0,0.622-0.507,1.129-1.129,1.129c-0.624,0-1.131-0.507-1.131-1.129V45.322c0-0.624,0.507-1.129,1.131-1.129
		c0.622,0,1.129,0.506,1.129,1.129V74.678z"/>
	<path class="bg-line" fill="#003A49" d="M50.967,41.934c-1.868,0-3.387,1.521-3.387,3.388v29.356c0,1.868,1.519,3.387,3.387,3.387
		c1.867,0,3.387-1.519,3.387-3.387V45.322C54.354,43.455,52.834,41.934,50.967,41.934z M52.095,74.678
		c0,0.622-0.505,1.129-1.128,1.129c-0.624,0-1.13-0.507-1.13-1.129V45.322c0-0.624,0.506-1.129,1.13-1.129
		c0.623,0,1.128,0.506,1.128,1.129V74.678z"/>
	<path class="bg-line" fill="#003A49" d="M91.049,45.322c1.559,0,2.822-1.266,2.822-2.823v-3.387c0-1.557-1.264-2.823-2.822-2.823
		c-1.557,0-2.822,1.266-2.822,2.823v0.564h-1.131v-3.387h-3.385V35.16c0-2.491-2.025-4.517-4.518-4.517
		c-2.49,0-4.518,2.026-4.518,4.517v1.129c0,0.623-0.504,1.129-1.129,1.129c-0.621,0-1.129-0.506-1.129-1.129V35.16
		c0-2.491-2.023-4.517-4.514-4.517c-2.492,0-4.518,2.026-4.518,4.517v1.129c0,0.623-0.506,1.129-1.129,1.129
		s-1.129-0.506-1.129-1.129V35.16c0-2.491-2.025-4.517-4.517-4.517c-2.49,0-4.517,2.026-4.517,4.517v1.129
		c0,0.623-0.505,1.129-1.128,1.129c-0.624,0-1.13-0.506-1.13-1.129V35.16c0-2.491-2.024-4.517-4.515-4.517
		c-2.492,0-4.517,2.026-4.517,4.517v1.129c0,0.623-0.507,1.129-1.129,1.129c-0.624,0-1.131-0.506-1.131-1.129V35.16
		c0-2.491-2.023-4.517-4.515-4.517s-4.518,2.026-4.518,4.517v2.258h-3.386v7.904h3.386v29.356h-3.386v7.903h3.386v2.258
		c0,2.491,2.026,4.518,4.518,4.518s4.515-2.026,4.515-4.518V83.71c0-0.623,0.507-1.129,1.131-1.129c0.622,0,1.129,0.506,1.129,1.129
		v1.129c0,2.491,2.024,4.518,4.517,4.518c2.49,0,4.515-2.026,4.515-4.518V83.71c0-0.623,0.506-1.129,1.13-1.129
		c0.623,0,1.128,0.506,1.128,1.129v1.129c0,2.491,2.026,4.518,4.517,4.518c2.492,0,4.517-2.026,4.517-4.518V83.71
		c0-0.623,0.506-1.129,1.129-1.129s1.129,0.506,1.129,1.129v1.129c0,2.491,2.025,4.518,4.518,4.518c2.49,0,4.514-2.026,4.514-4.518
		V83.71c0-0.623,0.508-1.129,1.129-1.129c0.625,0,1.129,0.506,1.129,1.129v1.129c0,2.491,2.027,4.518,4.518,4.518
		c2.492,0,4.518-2.026,4.518-4.518v-2.258h3.385v-1.129h6.775v-5.646h-6.775v-1.129h-3.385V45.322h3.385v-3.388h1.131v0.565
		C88.227,44.056,89.492,45.322,91.049,45.322z M28.385,43.064v-3.388h1.129v3.388H28.385z M28.385,80.322v-3.387h1.129v3.387H28.385z
		 M91.613,78.064v1.13h-4.518v-1.13H91.613z M84.84,76.936v3.387h-1.129v-3.387H84.84z M81.451,74.678v7.903v2.258
		c0,1.246-1.012,2.26-2.258,2.26c-1.244,0-2.258-1.014-2.258-2.26V83.71c0-1.867-1.52-3.388-3.389-3.388
		c-1.867,0-3.385,1.521-3.385,3.388v1.129c0,1.246-1.014,2.26-2.258,2.26c-1.248,0-2.26-1.014-2.26-2.26V83.71
		c0-1.867-1.52-3.388-3.387-3.388c-1.868,0-3.387,1.521-3.387,3.388v1.129c0,1.246-1.013,2.26-2.259,2.26
		c-1.245,0-2.258-1.014-2.258-2.26V83.71c0-1.867-1.52-3.388-3.387-3.388c-1.868,0-3.387,1.521-3.387,3.388v1.129
		c0,1.246-1.013,2.26-2.258,2.26c-1.247,0-2.259-1.014-2.259-2.26V83.71c0-1.867-1.521-3.388-3.387-3.388
		c-1.869,0-3.389,1.521-3.389,3.388v1.129c0,1.246-1.012,2.26-2.257,2.26s-2.259-1.014-2.259-2.26v-2.258v-7.903V45.322v-7.904V35.16
		c0-1.246,1.014-2.258,2.259-2.258s2.257,1.013,2.257,2.258v1.129c0,1.868,1.52,3.387,3.389,3.387c1.866,0,3.387-1.52,3.387-3.387
		V35.16c0-1.246,1.012-2.258,2.259-2.258c1.245,0,2.258,1.013,2.258,2.258v1.129c0,1.868,1.519,3.387,3.387,3.387
		c1.867,0,3.387-1.52,3.387-3.387V35.16c0-1.246,1.013-2.258,2.258-2.258c1.246,0,2.259,1.013,2.259,2.258v1.129
		c0,1.868,1.52,3.387,3.387,3.387c1.867,0,3.387-1.52,3.387-3.387V35.16c0-1.246,1.012-2.258,2.26-2.258
		c1.244,0,2.258,1.013,2.258,2.258v1.129c0,1.868,1.518,3.387,3.385,3.387c1.869,0,3.389-1.52,3.389-3.387V35.16
		c0-1.246,1.014-2.258,2.258-2.258c1.246,0,2.258,1.013,2.258,2.258v1.129v9.033V74.678z M84.84,43.064h-1.129v-4.517h1.129V43.064z
		 M90.484,39.112c0-0.311,0.254-0.565,0.564-0.565s0.564,0.255,0.564,0.565v3.387c0,0.311-0.254,0.565-0.564,0.565
		s-0.564-0.254-0.564-0.565V39.112z"/>
 
	<path class="bg-hig" fill="#A9E6F5" d="M79.193,32.902c-1.244,0-2.258,1.013-2.258,2.258v1.129c0,1.868-1.52,3.387-3.389,3.387
		c-1.867,0-3.385-1.52-3.385-3.387V35.16c0-1.246-1.014-2.258-2.258-2.258c-1.248,0-2.26,1.013-2.26,2.258v1.129
		c0,1.868-1.52,3.387-3.387,3.387c-1.868,0-3.387-1.52-3.387-3.387V35.16c0-1.246-1.013-2.258-2.259-2.258
		c-1.245,0-2.258,1.013-2.258,2.258v1.129c0,1.868-1.52,3.387-3.387,3.387c-1.868,0-3.387-1.52-3.387-3.387V35.16
		c0-1.246-1.013-2.258-2.258-2.258c-1.247,0-2.259,1.013-2.259,2.258v1.129c0,1.868-1.521,3.387-3.387,3.387
		c-1.869,0-3.389-1.52-3.389-3.387V35.16c0-1.246-1.012-2.258-2.257-2.258s-2.259,1.013-2.259,2.258v2.258v7.904v29.356v7.903v2.258
		c0,1.246,1.014,2.26,2.259,2.26s2.257-1.014,2.257-2.26V83.71c0-1.867,1.52-3.388,3.389-3.388c1.866,0,3.387,1.521,3.387,3.388
		v1.129c0,1.246,1.012,2.26,2.259,2.26c1.245,0,2.258-1.014,2.258-2.26V83.71c0-1.867,1.519-3.388,3.387-3.388
		c1.867,0,3.387,1.521,3.387,3.388v1.129c0,1.246,1.013,2.26,2.258,2.26c1.246,0,2.259-1.014,2.259-2.26V83.71
		c0-1.867,1.52-3.388,3.387-3.388c1.867,0,3.387,1.521,3.387,3.388v1.129c0,1.246,1.012,2.26,2.26,2.26
		c1.244,0,2.258-1.014,2.258-2.26V83.71c0-1.867,1.518-3.388,3.385-3.388c1.869,0,3.389,1.521,3.389,3.388v1.129
		c0,1.246,1.014,2.26,2.258,2.26c1.246,0,2.258-1.014,2.258-2.26v-2.258v-7.903V45.322v-9.033V35.16
		C81.451,33.915,80.439,32.902,79.193,32.902z M43.064,74.678c0,1.868-1.521,3.387-3.387,3.387c-1.869,0-3.389-1.519-3.389-3.387
		V45.322c0-1.867,1.52-3.388,3.389-3.388c1.866,0,3.387,1.521,3.387,3.388V74.678z M54.354,74.678c0,1.868-1.52,3.387-3.387,3.387
		c-1.868,0-3.387-1.519-3.387-3.387V45.322c0-1.867,1.519-3.388,3.387-3.388c1.867,0,3.387,1.521,3.387,3.388V74.678z
		 M65.645,74.678c0,1.868-1.52,3.387-3.387,3.387c-1.868,0-3.387-1.519-3.387-3.387V45.322c0-1.867,1.52-3.388,3.387-3.388
		c1.867,0,3.387,1.521,3.387,3.388V74.678z M76.936,74.678c0,1.868-1.52,3.387-3.389,3.387c-1.867,0-3.385-1.519-3.385-3.387V45.322
		c0-1.867,1.518-3.388,3.385-3.388c1.869,0,3.389,1.521,3.389,3.388V74.678z"/>
 
</svg>
