<?xml version="1.0" standalone="no"?>
<!DOCTYPE svg PUBLIC "-//W3C//DTD SVG 20010904//EN"
 "http://www.w3.org/TR/2001/REC-SVG-20010904/DTD/svg10.dtd">
<svg version="1.0" xmlns="http://www.w3.org/2000/svg"
 width="16.000000pt" height="16.000000pt" viewBox="0 0 16.000000 16.000000"
 preserveAspectRatio="xMidYMid meet">
<metadata>
Created by potrace 1.11, written by Peter Selinger 2001-2013
</metadata>
<g transform="translate(0.000000,16.000000) scale(0.002286,-0.002286)"
fill="#000000" stroke="none">
<path d="M3258 6975 c-1 -2 -37 -6 -78 -10 -41 -4 -82 -8 -90 -10 -8 -1 -40
-6 -70 -10 -193 -25 -466 -112 -646 -205 -693 -359 -1048 -1086 -1047 -2150 0
-119 11 -367 17 -410 3 -14 7 -50 10 -80 48 -441 204 -861 433 -1165 63 -83
178 -204 253 -264 25 -20 52 -42 60 -50 38 -37 219 -147 322 -195 198 -94 450
-168 653 -190 22 -3 66 -8 97 -11 95 -12 145 -14 333 -14 173 -1 233 2 320 13
22 3 65 8 95 11 47 5 224 38 270 50 232 61 430 147 610 265 52 35 97 65 100
69 3 3 25 22 50 43 66 53 137 124 200 198 30 36 58 67 61 70 3 3 35 50 71 105
90 137 167 291 217 435 13 36 26 72 29 80 3 8 6 20 7 25 2 6 12 42 23 80 22
74 47 177 56 235 3 19 7 44 10 55 2 11 7 45 11 75 4 30 9 62 10 70 3 20 13
127 21 225 7 90 7 434 0 540 -8 124 -17 230 -21 245 -2 8 -7 38 -10 65 -4 28
-17 104 -31 171 -153 758 -563 1270 -1204 1503 -141 51 -313 92 -465 111 -44
6 -93 13 -110 16 -32 6 -561 15 -567 9z m487 -930 c412 -87 663 -353 779 -825
14 -58 28 -123 31 -145 3 -22 7 -49 10 -60 20 -99 28 -598 12 -740 -25 -217
-46 -313 -104 -478 -161 -455 -500 -683 -998 -672 -166 4 -199 8 -313 41 -295
84 -506 290 -630 614 -19 50 -46 139 -57 186 -51 234 -60 324 -60 634 0 239 4
305 30 465 93 583 384 917 861 988 117 18 337 14 439 -8z"/>
<path d="M1955 1593 c-171 -25 -290 -96 -370 -223 -86 -136 -92 -320 -15 -471
30 -58 215 -242 315 -314 15 -11 35 -27 44 -35 20 -19 202 -140 256 -170 289
-164 633 -283 933 -324 23 -3 59 -8 81 -11 102 -14 409 -21 501 -11 19 3 62 7
95 11 33 3 71 7 85 10 14 2 43 6 65 10 86 13 305 69 400 102 291 101 553 244
785 430 125 100 235 208 279 275 91 136 100 311 23 468 -32 66 -119 156 -186
193 -133 74 -310 76 -446 7 -29 -15 -167 -126 -220 -179 -45 -44 -313 -221
-335 -221 -2 0 -29 -11 -59 -25 -71 -33 -173 -68 -266 -94 -78 -21 -101 -26
-185 -37 -27 -3 -59 -8 -70 -10 -28 -6 -324 -6 -333 0 -4 2 -39 7 -77 11 -39
4 -73 9 -77 12 -5 2 -18 6 -29 8 -266 51 -573 209 -774 396 -27 26 -66 60 -85
75 -19 16 -37 31 -40 34 -11 11 -87 48 -124 60 -44 14 -141 27 -171 23z"/>
</g>
</svg>
